<mxfile host="app.diagrams.net" agent="Mozilla/5.0 (Macintosh; Intel Mac OS X 10.15; rv:135.0) Gecko/20100101 Firefox/135.0" version="26.0.16">
  <diagram name="Page-1" id="Mn5b5Y1fS-jsfZXFd0IX">
    <mxGraphModel dx="2074" dy="1129" grid="1" gridSize="10" guides="1" tooltips="1" connect="1" arrows="1" fold="1" page="1" pageScale="1" pageWidth="850" pageHeight="1100" math="0" shadow="0">
      <root>
        <mxCell id="0" />
        <mxCell id="1" parent="0" />
        <mxCell id="RajWmrVxO1QdRS3QiGWJ-28" value="" style="rounded=0;whiteSpace=wrap;html=1;" vertex="1" parent="1">
          <mxGeometry x="10" y="10" width="1430" height="740" as="geometry" />
        </mxCell>
        <mxCell id="RajWmrVxO1QdRS3QiGWJ-1" value="AWS Cloud" style="sketch=0;outlineConnect=0;gradientColor=none;html=1;whiteSpace=wrap;fontSize=12;fontStyle=0;shape=mxgraph.aws4.group;grIcon=mxgraph.aws4.group_aws_cloud;strokeColor=#AAB7B8;fillColor=none;verticalAlign=top;align=left;spacingLeft=30;fontColor=#AAB7B8;dashed=0;" vertex="1" parent="1">
          <mxGeometry x="40" y="40" width="640" height="650" as="geometry" />
        </mxCell>
        <mxCell id="RajWmrVxO1QdRS3QiGWJ-2" value="Region" style="sketch=0;outlineConnect=0;gradientColor=none;html=1;whiteSpace=wrap;fontSize=12;fontStyle=0;shape=mxgraph.aws4.group;grIcon=mxgraph.aws4.group_region;strokeColor=#879196;fillColor=none;verticalAlign=top;align=left;spacingLeft=30;fontColor=#879196;dashed=1;" vertex="1" parent="1">
          <mxGeometry x="80" y="80" width="550" height="570" as="geometry" />
        </mxCell>
        <mxCell id="RajWmrVxO1QdRS3QiGWJ-3" value="VPC" style="sketch=0;outlineConnect=0;gradientColor=none;html=1;whiteSpace=wrap;fontSize=12;fontStyle=0;shape=mxgraph.aws4.group;grIcon=mxgraph.aws4.group_vpc;strokeColor=#879196;fillColor=none;verticalAlign=top;align=left;spacingLeft=30;fontColor=#879196;dashed=0;" vertex="1" parent="1">
          <mxGeometry x="280" y="125" width="280" height="480" as="geometry" />
        </mxCell>
        <mxCell id="RajWmrVxO1QdRS3QiGWJ-4" value="Source" style="sketch=0;outlineConnect=0;fontColor=#232F3E;gradientColor=none;fillColor=#7AA116;strokeColor=none;dashed=0;verticalLabelPosition=bottom;verticalAlign=top;align=center;html=1;fontSize=12;fontStyle=0;aspect=fixed;pointerEvents=1;shape=mxgraph.aws4.bucket;" vertex="1" parent="1">
          <mxGeometry x="150" y="360" width="75" height="78" as="geometry" />
        </mxCell>
        <mxCell id="RajWmrVxO1QdRS3QiGWJ-5" value="" style="sketch=0;points=[[0,0,0],[0.25,0,0],[0.5,0,0],[0.75,0,0],[1,0,0],[0,1,0],[0.25,1,0],[0.5,1,0],[0.75,1,0],[1,1,0],[0,0.25,0],[0,0.5,0],[0,0.75,0],[1,0.25,0],[1,0.5,0],[1,0.75,0]];outlineConnect=0;fontColor=#232F3E;fillColor=#ED7100;strokeColor=#ffffff;dashed=0;verticalLabelPosition=bottom;verticalAlign=top;align=center;html=1;fontSize=12;fontStyle=0;aspect=fixed;shape=mxgraph.aws4.resourceIcon;resIcon=mxgraph.aws4.lambda;" vertex="1" parent="1">
          <mxGeometry x="300" y="310" width="40" height="40" as="geometry" />
        </mxCell>
        <mxCell id="RajWmrVxO1QdRS3QiGWJ-22" style="edgeStyle=orthogonalEdgeStyle;rounded=0;orthogonalLoop=1;jettySize=auto;html=1;startArrow=classic;startFill=1;" edge="1" parent="1" source="RajWmrVxO1QdRS3QiGWJ-6" target="RajWmrVxO1QdRS3QiGWJ-7">
          <mxGeometry relative="1" as="geometry" />
        </mxCell>
        <mxCell id="RajWmrVxO1QdRS3QiGWJ-6" value="Staging" style="sketch=0;outlineConnect=0;fontColor=#232F3E;gradientColor=none;fillColor=#7AA116;strokeColor=none;dashed=0;verticalLabelPosition=bottom;verticalAlign=top;align=center;html=1;fontSize=12;fontStyle=0;aspect=fixed;pointerEvents=1;shape=mxgraph.aws4.bucket;" vertex="1" parent="1">
          <mxGeometry x="150" y="160" width="75" height="78" as="geometry" />
        </mxCell>
        <mxCell id="RajWmrVxO1QdRS3QiGWJ-7" value="&lt;div&gt;Step Functions&lt;/div&gt;&lt;div&gt;Workflow&lt;/div&gt;" style="sketch=0;points=[[0,0,0],[0.25,0,0],[0.5,0,0],[0.75,0,0],[1,0,0],[0,1,0],[0.25,1,0],[0.5,1,0],[0.75,1,0],[1,1,0],[0,0.25,0],[0,0.5,0],[0,0.75,0],[1,0.25,0],[1,0.5,0],[1,0.75,0]];outlineConnect=0;fontColor=#232F3E;fillColor=#E7157B;strokeColor=#ffffff;dashed=0;verticalLabelPosition=bottom;verticalAlign=top;align=center;html=1;fontSize=12;fontStyle=0;aspect=fixed;shape=mxgraph.aws4.resourceIcon;resIcon=mxgraph.aws4.step_functions;" vertex="1" parent="1">
          <mxGeometry x="381" y="160" width="78" height="78" as="geometry" />
        </mxCell>
        <mxCell id="RajWmrVxO1QdRS3QiGWJ-9" value="EFS" style="sketch=0;outlineConnect=0;fontColor=#232F3E;gradientColor=none;fillColor=#7AA116;strokeColor=none;dashed=0;verticalLabelPosition=bottom;verticalAlign=top;align=center;html=1;fontSize=12;fontStyle=0;aspect=fixed;pointerEvents=1;shape=mxgraph.aws4.elastic_file_system_standard;" vertex="1" parent="1">
          <mxGeometry x="378.5" y="410" width="78" height="78" as="geometry" />
        </mxCell>
        <mxCell id="RajWmrVxO1QdRS3QiGWJ-11" value="" style="sketch=0;points=[[0,0,0],[0.25,0,0],[0.5,0,0],[0.75,0,0],[1,0,0],[0,1,0],[0.25,1,0],[0.5,1,0],[0.75,1,0],[1,1,0],[0,0.25,0],[0,0.5,0],[0,0.75,0],[1,0.25,0],[1,0.5,0],[1,0.75,0]];outlineConnect=0;fontColor=#232F3E;fillColor=#ED7100;strokeColor=#ffffff;dashed=0;verticalLabelPosition=bottom;verticalAlign=top;align=center;html=1;fontSize=12;fontStyle=0;aspect=fixed;shape=mxgraph.aws4.resourceIcon;resIcon=mxgraph.aws4.lambda;" vertex="1" parent="1">
          <mxGeometry x="350" y="310" width="40" height="40" as="geometry" />
        </mxCell>
        <mxCell id="RajWmrVxO1QdRS3QiGWJ-14" value="" style="sketch=0;points=[[0,0,0],[0.25,0,0],[0.5,0,0],[0.75,0,0],[1,0,0],[0,1,0],[0.25,1,0],[0.5,1,0],[0.75,1,0],[1,1,0],[0,0.25,0],[0,0.5,0],[0,0.75,0],[1,0.25,0],[1,0.5,0],[1,0.75,0]];outlineConnect=0;fontColor=#232F3E;fillColor=#ED7100;strokeColor=#ffffff;dashed=0;verticalLabelPosition=bottom;verticalAlign=top;align=center;html=1;fontSize=12;fontStyle=0;aspect=fixed;shape=mxgraph.aws4.resourceIcon;resIcon=mxgraph.aws4.lambda;" vertex="1" parent="1">
          <mxGeometry x="450" y="310" width="40" height="40" as="geometry" />
        </mxCell>
        <mxCell id="RajWmrVxO1QdRS3QiGWJ-15" value="" style="sketch=0;points=[[0,0,0],[0.25,0,0],[0.5,0,0],[0.75,0,0],[1,0,0],[0,1,0],[0.25,1,0],[0.5,1,0],[0.75,1,0],[1,1,0],[0,0.25,0],[0,0.5,0],[0,0.75,0],[1,0.25,0],[1,0.5,0],[1,0.75,0]];outlineConnect=0;fontColor=#232F3E;fillColor=#ED7100;strokeColor=#ffffff;dashed=0;verticalLabelPosition=bottom;verticalAlign=top;align=center;html=1;fontSize=12;fontStyle=0;aspect=fixed;shape=mxgraph.aws4.resourceIcon;resIcon=mxgraph.aws4.lambda;" vertex="1" parent="1">
          <mxGeometry x="500" y="310" width="40" height="40" as="geometry" />
        </mxCell>
        <mxCell id="RajWmrVxO1QdRS3QiGWJ-16" value="&lt;b&gt;&lt;font style=&quot;font-size: 20px;&quot;&gt;...&lt;/font&gt;&lt;/b&gt;" style="text;html=1;align=center;verticalAlign=middle;resizable=0;points=[];autosize=1;strokeColor=none;fillColor=none;" vertex="1" parent="1">
          <mxGeometry x="400" y="310" width="40" height="40" as="geometry" />
        </mxCell>
        <mxCell id="RajWmrVxO1QdRS3QiGWJ-17" value="" style="strokeWidth=2;html=1;shape=mxgraph.flowchart.annotation_2;align=left;labelPosition=right;pointerEvents=1;rotation=90;" vertex="1" parent="1">
          <mxGeometry x="406.25" y="196.25" width="22.5" height="195" as="geometry" />
        </mxCell>
        <mxCell id="RajWmrVxO1QdRS3QiGWJ-19" value="" style="strokeWidth=2;html=1;shape=mxgraph.flowchart.annotation_2;align=left;labelPosition=right;pointerEvents=1;rotation=-90;" vertex="1" parent="1">
          <mxGeometry x="408.75" y="280" width="22.5" height="195" as="geometry" />
        </mxCell>
        <mxCell id="RajWmrVxO1QdRS3QiGWJ-21" style="edgeStyle=orthogonalEdgeStyle;rounded=0;orthogonalLoop=1;jettySize=auto;html=1;entryX=0;entryY=0.5;entryDx=0;entryDy=0;entryPerimeter=0;" edge="1" parent="1" source="RajWmrVxO1QdRS3QiGWJ-4" target="RajWmrVxO1QdRS3QiGWJ-5">
          <mxGeometry relative="1" as="geometry" />
        </mxCell>
        <mxCell id="RajWmrVxO1QdRS3QiGWJ-24" value="" style="endArrow=none;html=1;rounded=0;exitX=1;exitY=0;exitDx=0;exitDy=0;exitPerimeter=0;startFill=0;" edge="1" parent="1" source="RajWmrVxO1QdRS3QiGWJ-7">
          <mxGeometry width="50" height="50" relative="1" as="geometry">
            <mxPoint x="470" y="160" as="sourcePoint" />
            <mxPoint x="750" y="110" as="targetPoint" />
          </mxGeometry>
        </mxCell>
        <mxCell id="RajWmrVxO1QdRS3QiGWJ-25" value="" style="endArrow=none;html=1;rounded=0;exitX=1;exitY=1;exitDx=0;exitDy=0;exitPerimeter=0;startFill=0;entryX=0;entryY=1;entryDx=0;entryDy=0;" edge="1" parent="1" source="RajWmrVxO1QdRS3QiGWJ-7" target="RajWmrVxO1QdRS3QiGWJ-27">
          <mxGeometry width="50" height="50" relative="1" as="geometry">
            <mxPoint x="480" y="246.25" as="sourcePoint" />
            <mxPoint x="740" y="360" as="targetPoint" />
          </mxGeometry>
        </mxCell>
        <mxCell id="RajWmrVxO1QdRS3QiGWJ-27" value="" style="shape=image;verticalLabelPosition=bottom;labelBackgroundColor=default;verticalAlign=top;aspect=fixed;imageAspect=0;image=data:image/png,iVBORw0KGgoAAAANSUhEUgAAAYUAAALmCAYAAACtq4ghAAAKOWlDQ1BJQ0MgUHJvZmlsZQAASImVlgdUVNcWhve90xsMzDAUKUPvSGcA6V1EkCqIyjBDhxGHZkFFJBiBiKIighUVRRSMhiKxIKJYCIINewYRASUGC1hAeRdJNMlb77319lrn7u/ue84++5S17g9AO8pPTU1GmQAponRxoJcrd354BJf0FMjABGnggD1fkJbqEhAwBzD70//dxu4AMuVvGk/l+vfv/9VkhTFpAgAkEmORME2QgnEHxq6CVHE6wFRloJmVnjrFlhizxViBGHtPcdw0T41lR09z6pc+wYFuGOcBkOl8vjgOgLoJi3MzBXFYHupxjE1FwgQRxhKMHQXxfCEAjYuxUUrKkimeWqce1h/LR8PGAC/6Lznj/pY/+mt+Pj/uK0+v64uxg8xtzGzdvTy5bvzkhGgxPz1G+H9u0/+2lOSMP+ebOg16jCgkCPM6WFOGIDAHGzADW3AHL/AELrgBH5IhAaJBjFE6xABWUnrMsqm1gtuS1OXihLj4dK4LdqIxXB+RwMSIa25qbgowdT+mp3lz98tMCIf8LbZEC9uqIWxvFn+LxSoAnNYEkE74FlMvx/bpLcB5oSBDnDkdw089CEDF7h0bFEEVNEEPjLHKrcEenMEDZoM/BEM4LAIBxEMKVnkWZMNayIdC2ATboBz2wH44DMfgBDTCaTgPl+AadMFteAAS6IcXMAJjMI4gCAlhICxEEVFDtBFDxBzhIY6IBzIHCUTCkSgkDhEhGUg2sg4pREqQcmQfUo38iJxCziNXkG7kHtKLDCGvkY8oDqWjbFQF1UFnojzUBfVFg9GFaBy6FF2B5qEb0TK0Ej2KNqDn0WvobVSCvkBHcYCj4Tg4dZwxjodzw/njInCxODFuNa4AV4qrxNXimnHtuJs4CW4Y9wFPxLPwXLwx3h7vjQ/BC/BL8avxRfhy/GF8A74NfxPfix/BfyYwCMoEQ4IdwYcwnxBHyCLkE0oJVYR6wkXCbUI/YYxIJHKIukQbojcxnJhIXEksIu4i1hFbiN3EPuIoiURSJBmSHEj+JD4pnZRP2kE6SjpHukHqJ70n08hqZHOyJzmCLCLnkkvJR8hnyTfIA+RxCpOiTbGj+FOElOWUYsoBSjPlOqWfMk6VoepSHajB1ETqWmoZtZZ6kfqQ+oZGo2nQbGnzaAm0HFoZ7TjtMq2X9oEuSzegu9Ej6Rn0jfRD9Bb6PfobBoOhw3BmRDDSGRsZ1YwLjMeM91IsKRMpHymh1BqpCqkGqRtSL6Up0trSLtKLpFdIl0qflL4uPcykMHWYbkw+czWzgnmK2cMclWHJmMn4y6TIFMkckbkiMyhLktWR9ZAVyubJ7pe9INvHwrE0WW4sAWsd6wDrIqufTWTrsn3YiexC9jF2J3tETlbOUi5UbplchdwZOQkHx9Hh+HCSOcWcE5w7nI/yKvIu8jHyG+Rr5W/Iv1OYoeCsEKNQoFCncFvhoyJX0UMxSXGzYqPiIyW8koHSPKUspd1KF5WGZ7Bn2M8QzCiYcWLGfWVU2UA5UHml8n7lDuVRFVUVL5VUlR0qF1SGVTmqzqqJqltVz6oOqbHUHNUS1LaqnVN7zpXjunCTuWXcNu6IurK6t3qG+j71TvVxDV2NEI1cjTqNR5pUTZ5mrOZWzVbNES01LT+tbK0arfvaFG2edrz2du127Xc6ujphOut1GnUGdRV0fXRX6NboPtRj6DnpLdWr1LulT9Tn6Sfp79LvMkANrAziDSoMrhuihtaGCYa7DLuNCEa2RiKjSqMeY7qxi3GmcY1xrwnHZI5JrkmjycuZWjMjZm6e2T7zs6mVabLpAdMHZrJms81yzZrNXpsbmAvMK8xvWTAsPC3WWDRZvLI0tIyx3G1514pl5We13qrV6pO1jbXYutZ6yEbLJspmp00Pj80L4BXxLtsSbF1t19ietv1gZ22XbnfC7nd7Y/sk+yP2g7N0Z8XMOjCrz0HDge+wz0HiyHWMctzrKHFSd+I7VTo9cdZ0FjpXOQ+46Lskuhx1eelq6ip2rXd952bntsqtxR3n7uVe4N7pIesR4lHu8dhTwzPOs8ZzxMvKa6VXizfB29d7s3ePj4qPwKfaZ2S2zexVs9t86b5BvuW+T+YYzBHPafZD/Wb7bfF7OFd7rmhuoz/4+/hv8X8UoBuwNODnecR5AfMq5j0LNAvMDmwPYgUtDjoSNBbsGlwc/CBELyQjpDVUOjQytDr0XZh7WEmYZP7M+avmXwtXCk8Ib4ogRYRGVEWMLvBYsG1Bf6RVZH7knYW6C5ctvLJIaVHyojOLpRfzF5+MIkSFRR2JmuD78yv5o9E+0TujRwRugu2CF0Jn4VbhUIxDTEnMQKxDbEnsYJxD3Ja4oXin+NL44QS3hPKEV4neiXsS3yX5Jx1KmkwOS65LIadEpZwSyYqSRG1LVJcsW9KdapianypZard029IRsa+4Kg1JW5jWlM7GfsQdGXoZ32X0ZjpmVmS+zwrNOrlMZploWcdyg+Ublg+s8FxxcCV+pWBla7Z69trs3lUuq/atRlZHr25do7kmb01/jlfO4bXUtUlrf8k1zS3JfbsubF1znkpeTl7fd17f1eRL5Yvze9bbr9/zPf77hO87N1hs2LHhc4Gw4GqhaWFp4USRoOjqD2Y/lP0wuTF2Y2exdfHuTcRNok13NjttPlwiU7KipG+L35aGrdytBVvfblu87UqpZeme7dTtGdslZXPKmnZo7di0Y6I8vvx2hWtF3U7lnRt2vtsl3HVjt/Pu2j0qewr3fNybsPfuPq99DZU6laX7ifsz9z87EHqg/SDvYHWVUlVh1adDokOSw4GH26ptqquPKB8prkFrMmqGjkYe7Trmfqyp1rh2Xx2nrvA4HM84/vzHqB/vnPA90XqSd7L2J+2fdtaz6gsakIblDSON8Y2SpvCm7lOzT7U22zfX/2zy86HT6qcrzsidKT5LPZt3dvLcinOjLaktw+fjzve1Lm59cGH+hVtt89o6L/pevHzJ89KFdpf2c5cdLp++Ynfl1FXe1cZr1tcaOqw66n+x+qW+07qz4brN9aYu267m7lndZ2843Th/0/3mpVs+t67dnnu7+07Inbs9kT2Su8K7g/eS7726n3l//EHOQ8LDgkfMR6WPlR9X/qr/a53EWnKm172340nQkwd9gr4XT9OeTvTnPWM8Kx1QG6geNB88PeQ51PV8wfP+F6kvxofzf5P5bedLvZc//e78e8fI/JH+V+JXk6+L3ii+OfTW8m3raMDo47GUsfF3Be8V3x/+wPvQ/jHs48B41gRpouyT/qfmz76fH06mTE6m8sX8L1IAhzU0Nhbg9SEARjgAqwvTCwum9dsfGgdRs/iqdv4DT2u8L2YNcNAZICQHIKAFYC8W0sQ8beodiwc7AzKG/9r+sLRYC/PpXLRGTJqUTk6+CQMg6QN86pmcHG+cnPxUhRV7H6BlbFo3ThnzKEDXU1Nzv5D7E2U5/9Rp05ryL2v8p4evFfzN/wvmoM8C5GW8pAAAAFxlWElmTU0AKgAAAAgABAEGAAMAAAABAAIAAAESAAMAAAABAAEAAAEoAAMAAAABAAIAAIdpAAQAAAABAAAAPgAAAAAAAqACAAQAAAABAAABhaADAAQAAAABAAAC5gAAAADaptJVAAACtmlUWHRYTUw6Y29tLmFkb2JlLnhtcAAAAAAAPHg6eG1wbWV0YSB4bWxuczp4PSJhZG9iZTpuczptZXRhLyIgeDp4bXB0az0iWE1QIENvcmUgNi4wLjAiPgogICA8cmRmOlJERiB4bWxuczpyZGY9Imh0dHA6Ly93d3cudzMub3JnLzE5OTkvMDIvMjItcmRmLXN5bnRheC1ucyMiPgogICAgICA8cmRmOkRlc2NyaXB0aW9uIHJkZjphYm91dD0iIgogICAgICAgICAgICB4bWxuczp0aWZmPSJodHRwOi8vbnMuYWRvYmUuY29tL3RpZmYvMS4wLyIKICAgICAgICAgICAgeG1sbnM6ZXhpZj0iaHR0cDovL25zLmFkb2JlLmNvbS9leGlmLzEuMC8iPgogICAgICAgICA8dGlmZjpQaG90b21ldHJpY0ludGVycHJldGF0aW9uPjI8L3RpZmY6UGhvdG9tZXRyaWNJbnRlcnByZXRhdGlvbj4KICAgICAgICAgPHRpZmY6UmVzb2x1dGlvblVuaXQ+MjwvdGlmZjpSZXNvbHV0aW9uVW5pdD4KICAgICAgICAgPHRpZmY6Q29tcHJlc3Npb24+MTwvdGlmZjpDb21wcmVzc2lvbj4KICAgICAgICAgPHRpZmY6T3JpZW50YXRpb24+MTwvdGlmZjpPcmllbnRhdGlvbj4KICAgICAgICAgPGV4aWY6UGl4ZWxZRGltZW5zaW9uPjc0MjwvZXhpZjpQaXhlbFlEaW1lbnNpb24+CiAgICAgICAgIDxleGlmOlBpeGVsWERpbWVuc2lvbj4zODk8L2V4aWY6UGl4ZWxYRGltZW5zaW9uPgogICAgICA8L3JkZjpEZXNjcmlwdGlvbj4KICAgPC9yZGY6UkRGPgo8L3g6eG1wbWV0YT4KTA6PZwAAQABJREFUeAHsnQd8W9X1x3962pb3SOzESZw4OyGDkLAChJCUvQqUfymFstpSaCmlLXTQAaW0ZRUKZZVSOoCyKRTKhgxC9t6O48QZduI9tfU/58myJVu2ZVtb535i++m9O879XuWed8+5Q+OhAAlCQAgIASEgBIiAIhSEgBAQAkJACPgIiFLwkZC/QkAICAEhICMF+Q4IASEgBIRAFwEZKXSxkCshIASEQMoTEKWQ8l8BASAEhIAQ6CIgSqGLhVwJASEgBFKegCiFlP8KCAAhIASEQBcBUQpdLORKCAgBIZDyBEQppPxXQAAIASEgBLoIiFLoYiFXQkAICIGUJyBKIeW/AgJACAgBIdBFQJRCFwu5EgJCQAikPAFRCin/FRAAQkAICIEuAqIUuljIlRAQAkIg5QmIUkj5r4AAEAJCQAh0ERCl0MVCroSAEBACKU9AlELKfwUEgBAQAkKgi4AohS4WciUEhIAQSHkCohRS/isgAISAEBACXQR0XZdyJQSEgD+BpqYmNDY2wmq1wuFwwO12Q1EU6HQ6mEwmZGZmIjs72z+JXAuBhCcgSiHhm1AqEC4CBw8exKEDe3Bo/3YcrT6EDLMGw3Lov4jbBoNih0nvgNWhg8Otp9PNTTja4EJDqwvDhhWicPRUjBw1AcXFxeESR/IRAjEhoPFQiEnJUqgQiAMC9fX12Ll9M3ZtW4GRma3Is7SiKM+AvGw9FI0mJAnrmhw4eNSGmhYzKutMmDDtREyYdAwpi2EhpZdIQiCeCIhSiKfWEFmiRqC2thbrV3+C9rpdKMltxPhiA4z6obvYnG4PyirbUNmYB7dxFGbNPQNFRUVRq5cUJASGSkCUwlAJSvrEIuBxYMn7L6C1dhcmj3RgTKEpYvIfotHDtv0aaDNLcerir0BvzIxYWZKxEAgXAVEK4SIp+cQ9gf37yvHxu//AvHHNmDzGEjV59x6yYsl2E04+41JMJLOSBCEQzwREKcRz64hsYSPwxdL30XjgMyyarYUmRF9B2ArvyGjJZjuQPRcLFn053FlLfkIgbAREKYQNpWQUnwQ8eOfVJzDKshfTxppjLmLZgXZsrx6OC6/4Psmijbk8IoAQ6E5AlEJ3IvI5qQi88s+HcNK4ahTmGeOmXg0tTry9xoCrvvXLuJFJBBECPgKiFHwk5G/SEXjn1UcxvaASxcMj50weLLRWKymG1SZ89fo7B5uFpBMCESEw9Dl4ERFLMhUCQyPw9itPYVbRgbhUCFwzi0mHs2db8e/n7htaRSW1EAgzAVEKYQYq2cWewPLP3sGE7LK4MhkFo5KZrsMJY2vw0TvPB3ss94RATAiIUogJdik0UgTKynbBduRzTBgVe6dyKHUcRaYti2MzNm9cE0p0iSMEIk5AlELEEUsB0SJgs9mwftkrWDAjsWb1zJtswL6t/wNvuSFBCMSagCiFWLeAlB82Aks/eRtzSprCll80MzpubCuWfvxmNIuUsoRAUAKiFIJikZuJRuDQoUNQmjegpCh+pp4OhOGwXAMK9OXYvWvnQJJJXCEQdgKiFMKOVDKMBYF1Kz9Q9zKKRdnhKnNqsQvrVr4fruwkHyEwKAKiFAaFTRLFE4Gqqipo2ivifrZRf8wyLDoUmGtQXl7eX1R5LgQiRkCUQsTQSsbRIrBtyxpMLmqLVnERLWfyCNpZdePSiJYhmQuBvgjIyWt90ZFncU+Aj8is2LUWC84IfdVyTW0rfvnoZ/h8fSWcThdOmFWMS8+cijNPGa/Wt6nZBjedPZWdGXqewUBZrQ40t9pQkJce7HHQe7wdR/O2vWhpaUF6eujpgmYmN4XAIAjISGEQ0CRJ/BBgU8vkEbT7aIjBRYfgnHLls/jXfzbh9ONL8LXzZ6CdtpxYu/WwmgOfQ/jtX76N2+59L8Qce4/29zc3YeaFT/YeoZcnU0ZYUb5nVy9P5bYQiCwBGSlElq/kHmECByq20zGaDioltK/y1l3V2L23Dvfdvhi3XnNiD+msNgfKK+sxcnim+jeNtqMoLMggxeHApp3VOEKjjGF5Fsw9ZiQUxXtc56HqJphNemRajCjbX4cRwzLUz3vomgPnx7t1jy3O6VFesBsFWcDGiq2YMfPYYI/lnhCIKIHQ/idFVATJXAgMnsDByh2YO8cQcgYjqIPnQ8mXr63E9Zcdi4z0rims+w81YuzCh9W8Vm8+hDc+3IELFk7ESw9fhvRZ9waUceLsYix74VrwyOLLN7+EnGwTyirqsPdAA15+5DL8+A8fkDJoUNNMWPwnVSk4t/8iII/ePhTSGdHvrivr7bHcFwIRJSDmo4jilcwjSYDt7ibFCrMx9BXMefSW//PvnILXqcMfddpD+NmDH2HfQW/nXVyYiaMrfohxo7Lxf+dMQ83KH+Ff938ZWq1CCuAa9bNz+534yz0X4IsNB7CZRg6+sGLdAVx61lQsff4aLJhXglWv3IBrLpmF4fkWNV3Nyh/7ovb7lw8BKsx148iRI/3GlQhCINwERCmEm6jkFzUCDQ0NMOttAyqPDT6//t7p+Pyla3HmqePxu6eWo3TRI/jrK+tVc1BOdpqan8moQ06WGWlpBvX+ibNHQa/VYsuuI5gzrVCNs/dA17YUC08ci3tvWwSOx+myM83gPDh4Pw/MaW3R29HY2Kiml19CIJoExHwUTdpSVlgJNDU1IddspTwHft7y8TOK8e+HLkXZ9+vw1R+8im/e+Ra+dsExMOh7/pdwOty48sev4eV3t6n+BPYrRPpEz7wMJ5oavT6JsEKTzIRAPwRkpNAPIHkcvwTa21qoE2cPweDD+DG5OJ/8BhwqyB8QLLz6/na88r9teOfpK3B4+W2o/OzWYNHCek+vU9DW0jUSCWvmkpkQ6INAz9eiPiLLIyEQTwQc9lak67wzgEKV60htC557fROmTchXZwNt3FGNx59fg1OOG41J4/JVxzH/XbGxEqs2HYDJoIPB4H13aqeZSZt2VOGZVzb0WxyPJMaMzFZnK32wvBzpaXp1PQT7C0IJBqqXwx76VNtQ8pQ4QiAUAqIUQqEkceKSgNvthLGjww5VQKvNhVff24Y77j/UmeRycirfedOp6mfus2+6Yi6tVfgvTvzKX3HJmVPwj/suxqKTxuKSm19W41x98Uz1r29KKjuilSCd/WW0IO6ld7birOv+icx0AzmxfwSdPjSnuEFPgth5qq0EIRBdAnJGc3R5S2lhJLB86YfIbvsfppQM3KdgdzhRtq8epaNzSLH0fDfy0FxTq82prjfwiVxb16p+ZufzQEJrqx0Wy8DS7KuyoqxtDhaf/ZWBFCVxhcCQCfT83zDkLCUDIRAdAnqDBY6mwfkU2KE8dXxBr4KymYcXpPmHvNyBKx9OP1CFwGkcTg/0hsQ4PY7llZA8BMTRnDxtmXI1Mafx3kCDUwrxDstN23GkZeTGu5giXxISEKWQhI2aKlWyWGhhWOvg3t7jnVFdC2iNBO13IUEIRJmAKIUoA5fiwkcgKysLjW3J+RVuaDMgOzs7fLAkJyEQIoHk/B8VYuUlWmITyMnJgcOTnHZ3mysNXD8JQiDaBEQpRJu4lBc2AoqiICNnBA7XDmyri7AJEKGMmlqccGgyyEGdnKaxCGGTbMNEQJRCmEBKNrEhMGLMVFTXuWJTeIRKZSVXXDIlQrlLtkKgbwKiFPrmI0/jnEBJSSnKjyaXCWnvET1GjxWlEOdfvaQVT5RC0jZtalSM7e6KeSTqGpNj9W87rbius+eguLg4NRpQahl3BEQpxF2TiEADJTB5xinYlyRHD1QcdmDqjPkDRSDxhUDYCIhSCBtKyShWBKZOnYrNByxw0oKvRA9ryk2YPuO4RK+GyJ/ABEQpJHDjiehdBGYfvxibytq7biTg1c797Zg4/WTalXVg+yQlYFVF5DgmIEohjhtHRAudwMzZ87C9Ohc2OhAnUcOKXWbMO+mMRBVf5E4SAqIUkqQhpRrAKWd8Bcu2JOb01M+3tOOEBXwedGhba0t7C4FIERClECmykm/UCZSMLYU+fx542+lECkfq7GjWTcXUad5zGhJJdpE1+QiIUki+Nk3pGi1YdBGWleXBZk8cM9Lbaw048/yrUrrdpPLxQ0CUQvy0hUgSJgIXXPotfLiVt9WO//DhRj3Ou/RG8JYdEoRAPBCQb2I8tILIEFYCvHvqvNOvxn9WhnYeclgLH0Bm760DJhz3fygsLBxAKokqBCJLQI7jjCxfyT2GBNpam/DW83/AZafGn/P2nVUOnHzOd5GTVxRDQlK0EOhJQEYKPZnInSQhkGbJxKnnfQevf6FHPK1r+2CDFlNOvFoUQpJ8z5KtGjJSSLYWlfr0IFBfX4/XX3wci49pwsgCY4/n0bpRS/sz/XedEWdeeD2KikZGq1gpRwgMiIAohQHhksiJTODdN/+BTNdmnDgt+ruqrt7RhiprKc6++FpZsZzIX6IUkF2UQgo0slSxi8CObZvw+aev4ZTJNpSOjPx2EvuqbFi2w4Rj5p6FWcee0CWIXAmBOCUgSiFOG0bEihwBt9uNlSs+Rfm2ZZhT0oLxo8xQwjxRqfyQFev2mlE4dh7mnbgQJpMpchWSnIVAGAmIUggjTMkqsQi0tbVh0/rPsW3DMpTkt2JckYKiXCP0+oFrCBd5sqvoxLTyw26UVZkwecZJmD7rJPD0WAlCIJEIiFJIpNYSWSNGYM+ePajcswYVe3cjJ82F3HQncsztyM7QQq/TwqDVqMrC4fDA4eIfN+qbnGhsN6DRmoaqejfGlIzDqNJjMX7CZFmMFrGWkowjTUCUQqQJS/4JR+Do0aOoqalBY2Mj2hoPormxFnZ7G7Zs24upk8bAZLYgIysX5oxCZGXnIS8vD8OHD0+4eorAQiAYAV2wm3JPCKQygYKCAvBP97Drnntw4eXfEf9AdzDyOakIyOK1pGpOqUykCHg8Hhot2COVveQrBOKGgCiFuGkKESSeCWg0GllfEM8NJLKFjYAohbChlIySmQCPFMrKypK5ilI3IaASEKUgXwQhECKB/Px88IhBghBIZgKiFJK5daVuYSXAM5J4xCBBCCQzAVEKydy6UrewEeARQklJSdjyk4yEQLwSEKUQry0jcsUVAR4hVFRUxJVMIowQiAQBUQqRoCp5JiWB4uLipKyXVEoI+BOQxWv+NORaCHQjwJvntbe3q76EyspK8H5JLpdLXcCm1cbfiW7dxJePQmDABGSbiwEjkwSpRMDhcOCGG25QlYGv3qwMnn76aaSnp/tuyV8hkDQExHyUNE0pFYkEAb1ej3POOScg6/nz54tCCCAiH5KJgCiFZGpNqUtECJx77rlIS0tT8zYYDLj00ksjUo5kKgTigYAohXhoBZEhrglYLBZcdNFFqowLFiyQHVHjurVEuKESEEfzUAlK+pAJVFdXq1tSs7M20cKwYcPU1cyjR4/G6tWrE0181THOO78WFhYmnOwicHQJiKM5urxTsjSn04nH/vMEVratx3bDATjVkykTb2Ww1qaBy5h4cvOXTmvXYFJrEWYZpuHWi78r23+n5P/E0CotSiE0ThJrkARcbhd+9twv8VLpKtTlDTITSRY2ApmNwIU7ZuC+K34jiiFsVJMrI/EpJFd7xl1tnn33ObxSIgohXhqmiY6MfnPSJjzyxmPxIpLIEWcERCnEWYMkkzhNzU1YcWgNaoYlU60Svy5N2cBK20ZUVVUlfmWkBmEnIEoh7EglQx8B3lW0MvOo76P8jSMC+9K951DHkUgiSpwQEKUQJw2RjGLYbDbYNc5krFrC18mmc6PV2prw9ZAKhJ+AKIXwM5UchYAQEAIJS0CUQsI2nQguBISAEAg/AVEK4WcqOSYgAc/OZrg/rA6b5B5Xx3oGpwfu96rgqRBTTdjgSkYRJSArmiOKVzIfCAEN9aP2u7fCfdQeNJkyMR36704I+myoN13vHkbrM/uQtXlxSFk5n6uAa019j7jGX02D61XaYvuv+5D+znzAoKD5ts1I/8lEaEssPeLLDSEQbwREKcRbi6SwPB4NoCkyQzF6zymwvnYQmgwdjIuHq1SUbH1c0GHl5d7RBOsnNbBcNyZAJg+NvZVJmTCelg+kUT1opCBBCCQSAVEKidRaKSCr7oZxai2543WurYeSZ4D+9skBNfdYXfDsagEaaURRmg5lhLnzueeIDRotaRdKx8Ftd0OptsIzzASNscNayh31fjLnNDrgmZABTXrgfwP3Hsr7UDuUGTShP6t3RaQtMkB368TOsn0Xnjk5MIyjUYFJC09L8NlXnno72GSFAiMUqsOgwqZGuJbXwLWlCRqzAqWI6jg9C8qZsr/RoHhKIpVA4P8GgSIE4p1AeQvabloPZ6W1U9K0b5WoZiVWJG3XroZ+Zhb09xzjfb6uHo03rEPGv+ZBMyNLte2337YRjp0dNn7SH1kfnOKNS+mtX18J2/om72d6lvG346BQJz+Q4HpxP1of3oOs9YuCJnO9X4WWH2zufGaYmg7z43M6FVnngz4u7HdvI1ubG1pSAoavjoKHFRspGufSo2i7byfM982AdvbA5O6jOHmUQgREKaRQYyd6VbnTb797O9ztLuqs50BDb9jOx/eg7akKZJyYB+2c3D6ryOmt92yH66AVmQ/NgOekPGjqHXDnekcVICVguHAEDA/OgsbmRtNZy+AiJ3FvSsHT5ITz6fLOMnWnFACTMzo/B7twNzjQdudWmC8ugu4OGgG1udB63jK4Pz0C5ZLQzoC2fWcddFeOhvYkMlF1BBJdDfrTh0F71AbbrRtg/MOMgFFURxT5IwT6JCCzj/rEIw/jigB1oLbVDTCdXgDluFxocsh8c3UJQJ29+4vafkX1kDKxraiHcWEBNOSnUCw6aIrJh0HOYF9QLh0FhU06I80wlJrhqQ3u9Ob47lY3vZnXdP64a2y+bHr9q9nWqKbTsvLYTiOSfa3QkwPdsSS0ld+2762H7oaxAQqhe2Esv/mfx8Nx7w44t3WMerpHks9CoBcCMlLoBYzcjj8CbjKPcPC3wXvIjs7BTb6E/oKnriP9pL7f5n35eHRdysJ3z/8v+xRMf5/nf6vfa3eHDPaXKsmX0eWv0E7sXybXvyuhjEkL2SykvWU8nL/ZDt3fBiZjv5WQCElNQJRCUjdvklWO3oA5uLY2wjs/iWYr0Zs2B62fs9lNpp+gId9rJnKtr/eOMIJGiuxNhRzeHIw0tVZZ5J1VFWqJthcrkfbAjFCjQzc+A05C4aH6asS/EDK3VI/Y96tQqtOR+scVATbzmL9UANvHR+F+9QDcNPvG/uBu0gw0eiBbOgdeC2BfVgs3mWbc5HR1vLC/sw481dV0Rj6sH5LJ5y/l3jjLaoAmR2ecsF/ovf/FXDtoplEVzYKalkkzqvSwPVUOz2dkMqJ77pW1asfdV9meI1ZosugdblwfM5WoDDYv+Qf9wmFwEScJQiBUAqIUQiUl8WJOgNcx6O+YAj3NImr+5XY0X7EK1k9rkH73VGjIJKQ+/wo5az0eNF+2Es03boBS6H0zVygtPzf8bCpM83PR+sc9apy2X28FO4w9PI21W+CprZxmKIGnwVquHoX21w/DSQqK/RiWB2fCRWakpps2oHHRUrT+eDPcu2kabB+BfRva4d66+KK5nulycnu20rqJu7bB+Mhs32P1r4am5mrIFyNBCIRKQE5eC5WUxBswge07tuPGTT/Fhmkd0z8HnEPvCdR5/s1O7+waXWDPzWsT+A1cXb/Q7VlnjuR05pk/vvUMnfcjdKGul/BzaLtJcSnVNnhIW2mGec1ifRZN9Wm9aiUs75/WGc3zOY14/nsYhq+NoVlZ22B64YTOZ74L15OkOKgs7bdLfbfUv6PKNPjLyLtw/HHHB9yXD0JARgryHUhIAjzzSBmdBgTp9NnM1NuzzsqaySvRscCt814EL/xnOHExioYUGY1iQlIInIDiekiHuWm6qS9oaEqqbkomHB9UB1UIHM+5uREaMllJEAKhEhClECopiScEYkzASKYx92dHAqTQXDkG+qtLAu75PrhbySzW4oDC6yckCIEQCYhSCBGURBMCsSag/1YpnO9UgU1P/sHTy55QLnJmGy4f5R9VroVAvwREKfSLSCIIgfghwKut7deugZv2beor2H62GZrjcqCcXdRXNHkmBHoQEKXQA4ncEALxS4B3ijU+MBP2H22E69m9AE83ZQXBm/wdpumtrx1A2zlLwSum1W034rcqIlmcEpDFa3HaMCKWEOiNgIb2ajI9dRw8tCra/re9cKxpgDLcCC1tzcEOdvPTx0FD1xKEwGAIiFIYDDVJIwTigIDmK6Ng4J84kEVESB4CYj5KnraUmggBISAEhkxAlMKQEUoGQkAICIHkISBKIXnaUmoiBISAEBgyAVEKQ0YoGQgBISAEkoeAKIXkaUupiRAQAkJgyAREKQwZoWTQGwGdTge3fMN6wxPj+x7o9V2H/MRYGCk+jgjIf9k4aoxkEyU3NxcjG+Tw+Hhs1zFNeRiW5z2DIh7lE5liR0CUQuzYJ33Jebl5mJk+Feb2pK9qQlVQod1Wp7vGYcSIEQkltwgbHQKiFKLDOWVL+fbZ1+Ps9aXQUUckIT4InLmqGD845xYoivz3j48WiS8p5JCd+GqPpJSmqakJv3v+fqwp2oF95gY4zHSWQLedPpOy4nFUKS1tjzS6OROzDpbiJ5f/CPn5+XEknYgSTwREKcRTayS5LJs3b8au6jJUN1fD4w7c/jkRqr556UZMO+kYKNrEe8MeljEMkwonYNq0adBq6YAhCUKgFwKiFHoBI7eFgD8BD41srr32Wjz++OMwmQLPSvaPJ9dCINEJJN4rT6ITF/kTkoCGjs8sKSlJSNlFaCEwEAKiFAZCS+KmLAEeKVRUVKRs/aXiqUNAlELqtLXUdIgECgsLwSMGCUIgmQmIUkjm1pW6hZVAVVUVTZpKPAd5WCFIZklPQJRC0jexVDAcBMSnEA6KkkciEBClkAitJDLGnID4FGLeBCJAlAiIUogSaClGCAgBIZAIBEQpJEIriYwxJ8DmowkTJsRcDhFACESagCiFSBOW/JOCAJuPdu/enRR1kUoIgb4IiFLoi448EwJCQAikGAFRCinW4FLdwRFg89H48eMHl1hSCYEEIiBKIYEaS0SNHQE2H5WVlcVOAClZCESJgCiFKIGWYoSAEBACiUBAlEIitJLIGHMCbD4aN25czOUQAYRApAmIUog0Yck/KQiw+ai8vDwp6iKVEAJ9ERCl0BcdeSYEhIAQSDECohRSrMGluoMjILOPBsdNUiUeAV3iiSwSC4HoEXA6ndi5c6da4I4dO7B9+3YYDAaUlpbKCWzRawYpKYoE5DjOKMKWohKPgMvlwo033oiGhoZO4S0WC5588klVOXTelAshkCQExHyUJA0p1YgMAT7k/sILLwzIfNGiRaIQAojIh2QiIEohmVpT6hIRAqwEsrOz1byNRiPOOeeciJQjmQqBeCAgSiEeWkFkiGsCrAh8o4XTTjsNOTk5cS2vCCcEhkJAHM1DoZeCad1ut7rdA9vYrVZryhAwm81QFAXDhw/HkiVLUqberBB5lDRmzBhxrKdIq4ujOUUaOhzVPHLkCB558zFsyN6NPek1QIqNM3U2wGkMB8nEycNNoo5uysK89qm4+rSvYeKYiYkjvEg6KAKiFAaFLfUSsUK4/b+/wuvzZFO41Gt9b43PXj0S9y26G8XFxamKICXqnWLveinRpmGvJJuM/vifR/HGXFEIYYebQBm+O/cgHvzwUbS0tCSQ1CLqQAmIUhgosRSMz3v+rEnfDo8mBSsvVQ4g8FnmJuws8y7mC3ggH5KGgCiFpGnKyFWk4ug+VGZ2Ld6KXEmSc7wTaMx0YGeNHEsa7+00FPlEKQyFXoqkbWtvg1ubIpWVavZJwKPVoKVNzEd9Qkrwh6IUErwBRXwhIASEQDgJiFIIJ03JSwgIASGQ4ARk8VqCN2AqiO9xeaAhs0WiBTcdzAP6pyhe2dXPm5vgXlkLpZgWw51dlGhVEnlTgICMFFKgkWNRRecfd8H+080BRbu3N8H1UiU8B9o772taXbB9dz1cbxzsvOd/4XpqD1pO/gSeOrt622N1AbXea/94oV47n6tQy/Ps7WkX5zJst6yH8/E9oWbXazwNKQP79Wth/8aqzjie/x5G8xWr4Pz4CBy91Lczch8XrCTdR3klHRUiQQiEmYAohTADlew6CBgUtL9VBff+NvUGd5LO5/ej5a4dcL93uBOTa1M9rJ/WQJMRfNCqTMqE8bR8IM3r6Xa/dQjNl3zemX4gFyyDe0cTrJ/UwPFoz47fRQrD+lENnOvrB5Jt0Lg8fVd3Qi795KnPuWwXKQP9JAtML5wA45PHBU0Xyk1PRSuaT18C96Eu5RpKOokjBEIhEPx/YigpJY4Q6IOA9iTqyB/fC8/aOtonIU2NaV9Rq/51rqmH9jpvYvdabweszM2Fu8EBjd0NzTCjOprwGBVo5uTAMM4CmEgp0JuxT8mAlQ1bZUZ583a7ycS0m97+a23QzKYN68x9T5dqf5866C2N0EzP8gpSZUXrM/u81/6/211w72pWRyqaXANwTFanOchTbYWG5PLQj4biuFudwLE5UEghctBdPBIe3ieCgttG+Ry2QrHQf7lKns2lgTLCrD7z1Nvh2dkMFBihlKar93y/PEds9KwJoPscXzVB7Wv1Pj7sVQruQlNnmb50ff11b2yA6x1S2JSvJpvqRBy1Yy3Qkrw+nn2ll2fJTUCUQnK3b8xqp5lGnWeaAtdqUgAXF4M7UFeVHeZzh6P9nWoYqYNnP4FzeS2Mx1MnnqmHm0xO1rcPQz8+HdZldUj7+iho8gxofXgPstYtQusFy+Cs9G7C13jOcrUzy9q8GJ4WJ+y3boBtRdcbvuWnE6G7YkzQ+htnZ8Jjc8P2yG6YnjoO/BZve7oc2kID9BMz4HF6e3JWUA1zPw7IwzArE+Z/Hq+msX5/g/rMccgKd61DvVbStbB8dCq0aTq0/4TMZ2TqMT84C43zP+3Mx3b2cuhGmWB59xS43q9Cyw+6zGyGqekwPz4HoHrbf7KJRlvVpEgUUjhupN9aCvfBdrS9dEjNq/m6derfzH/PA4h3KMFx/06wotEdmw3dBSPAis5D5jj3qlpY79gM3ekF0F0/LpSsJE6SEhClkKQNG+tqaXQamBYNg5U6fR07XOntlN9I9VeVqErBvbtZffO1bW5G+u0TOsVlxWE4wYiMJ2YDNEJwv9NhaqK06WR2sT2wE7alNbC8cTK9sXuTuf6xD7Yv6qF2jpMz4XpyD9qf2ov0y0cHd1BrNDDeOgHN31wP46o6eGhk0v7SQaTfO0018XhavErBRXXI/AcpjXHpcGfSf5XXD6L5l9thord6DSkPDi4a3Vh+MQXKifnwfHoETbdvgWc5bRa4uNArHMfJ0iFz6Wmw3bxeHfEYHpgJ5sMjo7Y7t8J8cRF0d0wG2lxoPW8Z3JSPMjtbVQjpv5sG7Xkj1FGIhhSZlkYl6TRaablzOzJfnAdPcRo8JBvh6TfY/7ADWhoZaX8Y6ODWFJnofia0145V2bleroT2slH95icRkpOA+BSSs11jXiu2qWvn56tv0MreVrDJQh0RTM5QRxCeTY3wbPAqCu3JZGryBUpn+M10KJTWZ17xPUKWHiCTEgclm65pdKH6KpbV0Bu+BR4y9XjIH6AMN6nlesikEzRQFtoT8mGclwPbw7vhIMeyvjQN2rMCO0ueNcSmKDd14JpdLVCmet/GPQe9fhLOWzeBzDpnDFd9Hprj89TZRqj3jhp8ZSukhBQ201C5Gj1fk9zp1JFva1RHAFpiAnLCg8xC+onpcCw5ChR5TUuOf+2H53PyubCJis1X5FvR0CiEg4fqz3n5Zjf5ygv213HvdtVUpj0nsI7d42q/VQpPgx2OZ/d2fySfU4SAjBRSpKFjUU0NO1lpkOAiH4J9ZR2MXxqudmDGk/LgXFMHhWzhbLIBvYkPJTjJNOVpJhPSQ13bLxhmZpLzmhRHL4GVluF7NFr4Gs0O2tSEzEdn9RxVODyw30EmnPfozT2PzFtsIurjlXyg02bdHTOq7DQjS5PeJauWRyHkE+GRj+23O9BEIxp9iRmmP8wgxZTZS416v+0h/m4yERn7UQi+HHQ3lKL9ypXQUXwNKVgJqUVAlEJqtXdUa8tvx2y/d7xbBceuVpjvyFE31VPm5qD9yb3QZetgXERv2UMMOnbAkrPW9K/jB5STMjMLGT+bBDf5JDyn+o1WOnJxf1gFdkizKYtHLuwXaVq0dEBl9BVZGebtcI3fnQAlCAf2y3CdjGSusv54I+z37YTp2bl9ZRn0GU9/1Z9WEPRZbzcNx+fCQzO9NOJf6A1R0t4X81HSNm3sK8Zv4/rTh8G22ruZHndyHLQzstW3bnt5OwJMR/2IrJqkRpICoDd2NqmwqYgMRjCQ78Kxtx2uJ/aA1x+4y1rgIV8EO5P7C8pXR0N3wziwiadH0Hf896CZQ9jRDOcz4TWpeKZlqiMQ21Pl8HxGJiOaAcUL27herIDcbEaimUoaMpvxSELJ6RhN0AiLg+eDKmBzI9AYaK7qXg93RRuU43K73+78zL6NloWfdn7mC+28XDjJZCYh9QjISCH12jyqNVanpj5Ypo4YfGsNNLT2wBcUmnLqC7zZWn9BIQeugUYebFLhmT4ZS0+HhxzKaTR3v+XRcoB/KKizhOjt3ueD6C/fzud+ykFzSgGMJ+Sg+ZZN6mPzRV57vKZjhTJpEtVP4EvLSksNvr/8wReXr/3yVh/R9FTLgzPRdvsmNN3kncnEZqq0m0qhMWph/cNOOCq80055VpKe7P1qIEez6Yx8tDzEay32IOP5eVBm9D77SEN+CDfNZlJVHJnEXP+sgPaasWpWrBBaL1yOjM8WqJ99v9z5dMRcCO3hiy9/k4eAnLyWPG0ZsZr85+O38CPHI6gu9u/tIlZcSBnzmgB1zr9/bF5TQCt9eZ0DO2bDFXgdAXfSPqUWrnx9+fDaA6Wa1iOwY5tk9w/+azf876vXXF9yvPfnaLb+3xcwPTSLnNcd/gGa5dS88DNY/ndKUIWg5k0jFsfLB6C/f2ZAsXlHgNubv4JvXnB9wH35kDwExHyUPG2ZUjXpoRC49uScVWihXDgVAmeryfHO+uHrSATVdEUmoe4KgctSZyp1UxSdMnB9/UcinQ8CL7Q0tdezrr7rJo0c0j84Ffafbe4xQvBF4gWGSse0W989+ZsaBEQppEY7Sy1TmACvrHawz8Iv8LYipseO9bsTeOlcXQft+SMCb8qnlCAgSiElmlkqmcoENLSFCGg9g4sd0yEEx7Pl0J1C/hifuSmENBIleQiIUkietpSaCIFeCRh+OgWuL+rgpGm2fQUXLVpj/4nuunF9RZNnSUxAZh8lceNK1YSAPwHDnVPh+N0O2D86Ah1NUdXQ1GB17yNaROf+ghzLtA+T7sQ86DpmJvmnlevUISBKIXXaWmoqBKDnPZZoZ1onreNwvXYQYCc6Bd3YNBjvng5NiUX9LL9Sl4AohdRte6l5qhKgtSE6/knV+ku9+yQgPoU+8chDISAEhEBqERClkFrtLbUVAkJACPRJQJRCn3jkoRAQAkIgtQiIUkit9pbaCgEhIAT6JCBKoU888lAICAEhkFoERCmkVnsPqrZ6I23b7I6fzfAGVQlJFBYCitsDozlw076wZCyZxA0BUQpx0xTxK8j4YaUoaPAeDxm/Uopk0SBgqVcwKX9CNIqSMmJEQJRCjMAnUrGlpaWY3ujdfz+R5BZZw09gZlMJpo2fFv6MJce4ISBKIW6aIn4FURQFP77w+1iwoueRlfErtUgWbgInrsrCbaffjIwMOkNaQtISkEN2krZpw1+x/Yf348G3HsH67DJUZbcFnioW/uIkxzghkFdvwLGtE/DtU6/D9HEySoiTZomYGKIUIoY2OTN2Op0oKyvD1iPbUd/qPXs5OWvas1ZfvLUcc885AVpt+E5161lKfN3JMKfjmGHTUFJSgrS0tPgSTqSJCAFRChHBKpkmGwEPHZl57bXX4vHHH4fJ1HGsZbJVUuojBIiA+BTkayAEQiRQWFgIjUam5oaIS6IlKAFRCgnacCJ29AlUVVWBRwwShEAyExClkMytK3ULKwGedSMjhbAilczikIAohThsFBEpPgk0NzfLSCE+m0akCiMBUQphhClZJS8BHiGMHz8+eSsoNRMCHQREKchXQQiEQIB9CTwVV4IQSHYCohSSvYWlfkJACAiBARAQpTAAWBI1dQmw+Yj3gJIgBJKdgCiFZG9hqV9YCLD5aM+ePWHJSzIRAvFMQJRCPLeOyCYEhIAQiDIBUQpRBi7FJSYBNh9NmCDnCCRm64nUAyEgSmEgtCRuyhJg89Hu3btTtv5S8dQhIEohddpaaioEhIAQ6JeAKIV+EUkEIQB1ewtZvCbfhFQgIEohFVpZ6jhkArJ4bcgIJYMEISBKIUEaSsQUAkJACESDgCiFaFCWMhKeAM8+GjduXMLXQyogBPojIEqhP0LyXAgQATYflZeXCwshkPQERCkkfRNLBcNFID8/P1xZST5CIG4JiFKI26YRweKNQE1NTbyJJPIIgbATEKUQdqSSYbISGD16dLJWTeolBDoJiFLoRCEXQqBvAvv37+87gjwVAklAQJcEdUi5Khw5cgRr9q7HofrDsLdbU67+saqwYlbw9FvPQKvTxkqElCrXYDIiPysPx40+FsXFxSlV91hWVkOzKjyxFEDKHhiBt9e8g5fK3sQGUwVasz3waAaWXmILgUQiYGnUYIZ9DM7MPw1XLfhaIomesLLKSCGBmm7JpmX4w44nsWl2ewJJLaIKgcETqMv3oBIVKN9yCJYVabjkxIsHn5mkDImA+BRCwhT7SIcOHcJjW/8qCiH2TSESxIDA9ul2/PXAS3LQURTYi1KIAuRwFLG+bAO2ZB4MR1aShxBISAJlObX4bNfShJQ9kYQWpZAgrbW3fj+ayYcQ66AhEbr/RFKmaJYVyXpI3kMn0JTlQVVT9dAzkhz6JCA+hT7xRP7hkhVLcLD2MKxtgX6C7AKadTF/LmqqarBhxRps2bMFOI2VQmw8y+79bXDct7MHEE2aFobfz+hxf6g3WBm4P6+B49OjcK6qVbPTHZ8H7cJhUE7IG1D2nno74CCnfIEBCu1h1D14Klphf2CXelv/jRIoc3I6o7jdHjh/tRWeegf0J+VB+aqsVeiEE+ULF73C7qKDjp7/778xZkQxTp59cpQlSI3iRCnEqJ2tHhs+a16Fla610JeaoNEGdlZH9VXYW/8/uLVuOGfZYW1wxUhSb7GaJgesn3Ss6PUTVUknpRABydzvHkbTj0kRcugoz77nAPDCAWQ+OAOaxcO9z/r5zcql9YqVcB6wImvVQsDcczqpptnZWTdPswOmv83rzFWztAbtrx1WP2ty9BGpa2dhctEvAVumG/sn1GOfqw6Hq5swS5mE8QXj+k0nEUInIEohdFZhi7mjbCfe3v8RlOlpSJ+Yo262VrvmEJwtDjja6K3WL5iHWZA/rxhuF48S4iNw5+qbCutROnrsQ+1w72kFGuzQ5NEb+XG58Bi81kl+E9dY3dBMyoBnZzPc/HlyBjQlluAV2tPSqRAs3y+F7uqxajznX8rR+lg5mn6wCRn/PRnK6DTgMI2wGhxAgRHIN8Ld6oRCoxq3XoEyPh3uI1Y4K2ktB4np3tUCjUlR5QheMGBb2wjT+npgdo5qJrM+sSd4VCeNPDY3wHPEBhybA4XL7wg8usCOZngOtFE9M4FiMxQfp0qSbVsTMIpkJ/kUYuS2u73xq9pJPi00lJ8mPfC/pppmH3GjNJocUsM1dnhGmqHJ8MbzVFMdt1O+nI5l93vJcDOfdXVApl6Vp3vePrkH8peVrX/wfR/870Xi2l5vRfXy/WrWdWnV2Ji2ASdaZuKchedEoriUzDPwm5eSCKJb6ZaWFry37kMoC3wdIvVWHjcMOWZkTiDzhM7bkfqkUrT0mZaSaI0933B9caL9V+24OgrlzsC9ogbNN6zvfKMHdRj6sWaY/nMyqItD283r4ahoh/HYLNjWN1J9KDGlS79rCrQX91yU5F5HnTIHiqMqBD1dUNBeOxYgpaCGjQ3QUMdqe2Q32t+qRvqtpdBeNw7KlkY0XrcO2iID0h6fg+aLVnjjU5nNV66CYtEi44uF3nvBflM861/2wvRYDlxf1MC2ublHLDZH2ahOto3UCXcE88VFMNw9XVUSrZetgLuWOuKOkP6TicDlo2G9cS1sKzrqRs9Mp+fD+KfZsF+3mrh05cXJMh44BsqZhWoOzsf3qMpQ/UC/FAspklY3Mh+dCSwYBtcbB9Hy822+x1Dy9Mh4dDZwTBZcpNRaHu1g1hEja8vizrgDviBl5Hq5Eq7yVnhsbnjqbNBNz4LunCJgRtaAsxtoAmOuGUWnlajJeIWVx+HGFud+WDYux2kzxZw0UJ7B4otSCEYlgvd4aml9WisyYUFTWR1c7Q7kHDMcmePpzZreMGtWHYSDRgyubiMGW0OgzyGCIvabtfV76zvjGO6aBmQbYLlxLJRxFmjSdGj73Q5VCZg3NACzuuzzoLd0VgSOd6rUztHx36oeSoHfQF1bvR0kd5roUAhcIL9Vm+bnwrqMuG1uhPa8EZ1yBL2gkYPlllK0Pux920+/fSI0WfqgUfmm8XgatdVYYVtSCwO9zduf2qvGTbuiGG3PH1CvWT7n0+WqQjCfNxz6S4ph+yMppjcOw3DTeLheO6AqBNMZ+TBcOQbug+3QltKIZXWtWmfdKBPSfj2NfBQ0ItR5lZ3u1ALozi6ElkZOrpV1aH1mH+yvHICJlQL5Qtr/VqGWzXVRCk1ovZ/8H6QUOPBIxacQMh+aATeN1Fp+vQN2UhQGKtenEDIeIb8Pv3CQPIMNzn9UwP7SARiJu+EqqhuNCDV1VA9m9cI+KO8ZoP/h5M5R5GDL6Sudhl6S7E028MjaF3QWA95Lq0V7XQvOOv1M3235O0gCohQGCW6wyY7UHwHydHA02tBa2YSi00u6snK7YS5MR05eWsDwnyM0fBT4JtmVKPpX1k+7fAuGVheUKZlQqEPzkNlHQ2+P+ikZqg3fs5fMST6lQP2f4Spy4s7PVxUHvzFzBxYseNq9/hOlwzTiH0dDJhAOnhan/+2g10q2Hsq59AbLSoHK11IHHsyn4Eusof8Nhu+Mh/22zWi/baNqduLRjfaEXKBDKXBc+xJv/bmDVk1h+V6viotGTNyxq3G+qIOWTEdqmcOMUMi8xoFNWY63D8FwxRiATGgcdDeMA6qs8JDZS3s8lUVKwbGJzFj0zLOROJECYGWixqN7+uf3w+YbidCIiYOh1OzlSUqLg+3DIzDcOVVNx2Xa/1UJw9VU5v+N8kYY4G/n/6rgOWpD2lvzO1OSigFGmAEaKRi+MgrO9w7D9pttMP58akQVg4lMqiMWEbOOwC9THjKvbrZWIH3DcsyfJSMGH5vB/BWlMBhqQ0hjTkuDzqlD+9FW6NO9nUnTtqOqRSVragHSS7KD5+5nIw4eIXp3A3wKRrLRky27+dvrvCYTfvnljsn7EhxcqI435GAP2RylTCU7/H+rYV1eC//3ehfZC2yfHVWTKdMpTrgDzUxSzqC3/5IydaTDdTDcVEpv5YEKyEWdI4fWv+zrkoDislnNQ+ktN7Wp5h72f+DP5ch4bBYUGg2wSaj1F1tVxzU7ry3fGQsdK6G7t6H93we78vK78hwmXwEFbYfi8XukXrr5TZ2CfU877DRC8AVth0K1PDQLbT/bDNvKevXHdHIO9H86Vh11+eL299f94n6AfBb6H0zqM6ruzCI4CRorBlZIkQqqibWbmVUti6xXS/avR+unrThzwZciVXzS56sq+6SvZRxVcOr0qUgbmUlDYCuMBWbY69rRRgqCFULCBJrBo/oVqBNkn4GdzBtsQ2cTUuaK05F26YghVUWZ5rVNc56e1XWd6yKwslZ9a+bOWkujE//goRlE3Z2f6nOK2xnIoRs0TmcEuiCFZbpjMsznU+d+1SgoNA22e9CNIScx5Zv+p5lg+7z6s3kxlLOL1M5Wd2MpMpYtQNo1o1UFaScHOQf2EViWno7035HJjULrn/fCRT4QVgjsJ8h8bz4y3gl8y1Xm0siBAvsc2FTETmzVMa3eJTGKeDxBo4dJli5ZSKa0tzve6Gk0YnrlRGT+bQ60hQZStPXkdKafEAOPyKwvH4DulokhpdCxyYuUqIemE8cimEanY1t7GSorK2NRfFKUKSOFKDdjQ0MDnK126NIM5DzuGDFkekcMURYlfMXRaIEDr2VQ3iN/wbIhdgjHZiPtKyPQ9tIhNF2zFqZT88BnJLd/RvlSZ2z++ihoaIYND0iU0V5zTfsLlfCQKcverWzPMJPqeGUFY/3uejJzpcFw13RV3t5+sYnLQD/BAo9kDGcVwr6tDG13bIbxzOHQ0Mwjd1kLDN8ogXtjI1w0cuKZT7y2gYOG2pc7SfvzlVAmeWcc8X1WBJqOKbJsIvKsrYeLZz75BzJRGaamU3k0I2vhks66+KIos7LVfBw7W2G9ahV084hLx+hBd/ME2H60CToqU0McPOSf4DCQ2Ueet8jUNc+rmHxldv/LitZ/9pFu0XA4yCdiOCk4w+7pw/25pcCBsn17MGrU4Exl4ZYn0fKTkUKUW2z71u1oO9yCrMn5SCsi2zuPGHK9HVuURRlQcerUU+oQuVP2D9wZ6GhBl260Ce3vVKP5V9vJjk1v0hQ6p6t2pNH4vm1B8vHPk6dv6n5GI6prx6iziKxLyYlIdnwuw3L9GOhv6zJjaM8arsZxt7nR9iI5QU+nEZefjDw103LLeDUOz3yyr/AuhPMvr7Nu/jeDXPumeSpfGwN2PnNHzmagtifJAUvmGQ2bNGgxn438CezcZucz+yQMPyQHN3X+7spWNW7Ln8rJRGVG+u9phhE5gzkvDs0/3QoXKRdWFqBRmC+YH56FtAsLYZydibRvkkOfZhdx8HB55GPJeOJY1XdgW9eI1icqVGXKClKV1+5C698r0XL/bjVN+nfHQUM+gFCDi6bWqn6OXhKwQmi97HOAptp2BpqO7KLpuLEKWmJd295NucZKmAQsV7bOjnKjfbzsEyxR1sNAU+t0NFJorWyAMY+mbxak9ynJ5nfW4KOJO9GU5dfj9Zkiug/dZO/X7KN5+cPJnNHx9hsuCdzkpFXn+dNbc7Cgrgs4QI5ces4zlIIFVT7uKLvN/w8WN9R7His5xNlBTGUq9Cbum02kpqf1Ex7q2NU1Bf4ZNpJJjE1dtHYhINB9dY0FO267BS6HzXUc2ITEIwYOmW+fBN9aD64fr13Q0Mw1Ta4R8JtlxVNH1fUcpKx9ik3NIIRfjl9uVZ3lSsd0U/crNNpZTCYiyl9VCBcug+lR8lHwmhG/YL1+DXRPzaEJT+H7vhqsHixeWYI5lwaa2PyKVS/dThfOt5yOSVnjuj+SzyEQEPNRCJAiEaV5dx0pgjR1xBDwahuJwqKQp7p9RMfMm3AXpwTpKP3LUBVGt07J/zlfq/KFUSFwnmpHTXUO2u0V0cIyjtQ9cGfq12F3PqZ7SrD7FKH1vGXQ0GI83Wiz1ydA99hh7FMInIdaP15A57eIju9z0LB5b5Btw7N6lBqvY53zUi4dhbYLvIrAevO6oAqBF8u5j1rDqhC47FCDQocgmdN6KtdQ06d6vOCvValOJYr1t9W0k4/Ba3uOYrFSVAIRMF1bAnZus5OYncVsbjL+YWZUaqClVeiObo7ptP/Mh/3h3UEVAgvlIb+Ib2puVITsVoitpg1ffLKi2135GCoBGSmESipM8QoKCqC3G2ieuXfeeuOuGnU2Urqll6moYSpXsklcAjpa08A/NA6IeuB1HnZarOg/NZiFMD3Qu1Jy0bRh3ZdHRl1WX4EeWu9js3qn8vruyd/QCchIIXRWYYk5fuJ4mIf37T8IS0GSiRAIAwFNrgHGL9FsoqdoAWAIwb3sqGo20542LITYEiUeCYhSiHKrHKk+Agct0zeSP0GfkeBTUaPMToqLDQHlqhLVke54rKzXdR7sdHYupW3O/3sY+l9512HERlopdagExHw0VIIDTL+njKYqKq3IoL2O2BHZtLvnFMkBZinRhUDECWgvGgnP03vQdvnnMJw/Elo6W4JnOfGGeOreR2toCqhBA8O9tMeShIQmIEohRs1nrW6BzqxX9zrSZ8TCWhyjikuxCUtAd0MpNGcVwf1v2iX1T7vVXVLdNEVWTyvQ9efSNNUgq79jUVljgQWnTDgtFkUnRZmiFGLUjC0VtOEZmZAyxvEuokEnL8ZIssQsls0XvuC/utZ3L5p/eRrnQNcDRFO+oZSlpbUO2h9OGkoWEU/Lq98VRSzjgwUt5AZLLkzp2g7StsO0Y6qEwRHgLR3cz1WoW1g0f+kzWG+ijflepe2r+aCbGAQXOWRbTv6kc6uJGIiQ8kVaj7Tgs3c/SXkOgwUgSmGw5AaZbsRI2os+u2tlbss+2nohjs5KGGS1YpJMQyuUbaQEmmkLB6XYBDNtP8Enq/FWG84fboyJTMqkTBhPoz1/aLsLCUIgEQmI+SjKrTamZAxMR9PQvEf2ZhkKejYX2e/fAduWZmS9fAJ8ZxNwV6z7ewWa79sN7SdHoD2F9kKibTI8NLUyYIsL3oaCDmzR0FkHnJeHtslwV9B5ENSp89GabILi0YZCh9J4+DOZhHhLCz7yU6Hzqt20nYdvSw3VXMTnJfBZD3NyYKDDhvz3LgKdD+HeRSe40RGeGtrAjk1L6pYWvHFdIa289R0kxEd1ZtDKZjoHQg209QW4LDp2s/M4z6FAk7RCIAQCMlIIAVI4o1Tur1QXrqWNzICRjuCUMHgCtqU1MJ87vFMh+HLS0NGXSpoC19uHwQf2NJ67HM4Hd/oeq3sPNS5eBtcL+1SFYKdnjWcvQ/N3NqDpjCWw3bFJjatpo7RnL4fj11vRuvAz79Gea+rQeM5y4KPqrvxoe2++56bT4Fx09oD6nBQAB949teV8yvtrq9F89Rq0UD5u2g0VFJfz5qNM1XikVNSyfrpZ/cy/7L/djpZrVovLqZOIXESDgCiFaFD2K+NA5QHY6tuRVpxJ5zJ3mZH8oshlCAT41DZXlR3aid7Ty/yT8Bu8nrZncNJB9wrtd8TnO1hpB9fOcwhoPj379rUX0jTLVbVoe3Y/0n8xGVnrFyHjqdnqbq+evS2dWTo3N9HBOaXIfHEeNCfnQ0emKse7VepzHmW43q9Sdy5VTgg8e0Edzdy1TX3zz/z4VGStXgjD5HQ4X6JN5ebkqruhupZ7lQJYUVCw0lGgqpykVGyfHoXpPDqjgRynEgZAgHjp9B2jrQEkk6heAqIUYvRNaK0kXwIdsGMZnSUjhkG0gYaP7OS+spddUTVm+mrzwfLc+V/E21xT/FXeA3vsdEa0cU4WeEM5B52JzPloaEM9z4aO7a8pW5ffFtvGr9JhO1eVQENTL3kTPNPlo2D9hDpz3tmUDu6x0lnTZroXsEsq14lGGrydtY6O5fTsb4V7ayOUMRa006lybDIy0bnMvqM9nXTegvnLRZxKHUVwXN6aW7uYRkISBkTARFNST17UdWzogBJLZIhPIUZfgvZDLWSr5impvOeRvAkOtBncvE22hY6/ZFt+kODc3w492fc5aGnbZ31pGvicYc20TFjpsJ70e6d5fQm8Ayi97dseLevMxTCT/Aq9bNPNkZRzqPN+YDfcfDQo2f/5LAftBT1Pm3PXdxyV+QW9/fN51R2BdzjloD1jGJyvHIKnohW2j4/Ccv8MGCvJh0HmKN4Jmze/89DRpPLt6AAX4h+3yw27jdjLYCFEYoHRRCkE8oj6p+a9DTBkmeigHfEvDAS+lkwEBjqhrf21Q0inc459TmQ22bjJ7hRWuBgAAEAASURBVO88YIX5au+RnTxa4Lf75nt2QkdKgZWJls5S5vsKbXHNva6RzjJmB7N/4KMogwWOZ15UAMd/D9GpaybaxppWp5MzuEfoOFfZSJ2//idTejzmxV58oI7jr3vVUQGOpfOTySHtILMRO6VN548Q01FPav3esde2YcXq5Rh/wZh+40qEngTEfNSTSUTvjCsdpy5a8xXSfpg6gWZ6W5UwIALcoet/MFFNY7thjddhW95CzuVDaLmZDjHit33yGfiCho7Q5MCKwXQhvel3HASkIx8BB+f9OwE+CpPe1F00ayngJDE1RtcvLlt38Uh1K+v2Nw/DcIn35LSuGN4rxUimpgX5sL5xCK43DoIPC3JvIrPQx9VqBPZ9GMk8xKe3GefysZo6aOflqecx2zY3QxHTUXek8jkKBGSkEAXI/kUMLxwOw1FxMPszGew1n4NsefJYmpq6E83fXK9mw6MA48l50N85tbPj5wdKtgHm86gDJocz7+PTGci0lH7nZLTcvUN9xvf5qEzzXdOg8AlmpACCrU5WTsz3HovJfovTCoKaeFh5GH86GR46y7nl59s6izRfXATDQq+vQM9KgY7t1NFeQmqYwiMZOsmNptBiSk8nemcmciEEIkRAjuOMENjest26exvetH1MpguaIUHHcdZvqfaepzCm7/MUtny8Dh+N3I7GXOppJPQgwPP+eR0BO3J7OHx7xA5ygw6191Rbocmg96ReTkALkirkW3wamdJMR3HSKXLBlEzIGaVwRHOrBwu3jcWcc07qkwKvaB5VnouvX3BFn/HkYXACMlIIziVid6urq2FX7J27pIZaUHZ2DjIaFVIKZDSX0IMAm15QOoRzKmg2UI9zk3uUMvgb6oI0ckqLSh88w8wGDbKy+n554tw1Wi0s6UP4LgxexKRIKT6FGDVj0546WI+2InNCLkz59HbbTygoKcSIo17HaT9R5bEQSEoCRUfSMHIsTf3tJxjzzDjulLn9xJLHvREQpdAbmQjft9PZzI5mOzmdLdBZ+p87x7OT5kw9FtNXycE8EW4ayT4OCUxap8XsUTNhHtG/n8XtcKGpvikOa5EYIon5KMbt1Lizlqaj0rTGgv6HuwVji3Cq+2Tkrd6Kg2l1aM6lBVkShECSEiAXPjIaFIy05mLSiEkYMSW0KaZ22jFgfflaTL8gvrf4jtdmE6UQ5ZaZNHkS1jTtVvc/4qJtNKdaawq9GfJLi3BiQS6sVS2oaaDjD+3B59JHuVopUVzt2kPImTkcik52QI1Gg2v1WuQMz0N6QQYMso4nGsjVMkLvjaImUnIXlJuXC517aCYgQ6YR/JOJwL12kptcjGtH/v3V/zmECd+eBi3NGpMgBJKVgHy7o9yyO7fvQJu9GZmTaDWrQYv2quYoSyDFCQEhIAR6JyBKoXc2EXlSV1cPp+JQHWYyPTEiiCXTFCegGHTIy5dR9GC/BqIUBktuiOkattO2yHQCW870YdDQl1hC/BNIpwWGHt6pTkJcE+CTDaePnRHXMsazcDIlNUat42yyw9nuhJ58A7oBOJpjJK4USwRa9jWAD4WXEN8EnFYnaqpoa3MJgyIgSmFQ2MKXqH5ztfgVwodTchICcDZZsXX9ZiExSAKiFAYJbrDJZsycAcuorpXJvIDNZZP1BoPlKemEgBAILwFRCuHl2W9ulnSLTGnsl1J8RjAPT1cPv4lP6UQqIRAeAuLhDA/HkHPZuH4jWtwNyD5mGC2CUsR0FDK52Edsr24hn0Ls5RAJhEAkCYhSiCTdIHm3tbXBrbihS5MdM4PgkVtCYMgEtCY9iopHDDmfVM1AlEKMWr5+A522Rbuj5s4ulG0TYtQGAy2WR3YyI3Wg1KIfn2f0TRwj+x4Nlrz4FAZLbojpXHRil9vugs6sh0J7vEiIfwJup1vMR/HfTDTV24FD+w4mgKTxKaIohRi3S+3aw2g9INv8xrgZpPgkIuCkM893b9uVRDWKblVEKUSXN+bMnYP0kqzOUl02Jzwud+dnuRACQkAIxJKAKIUo0zcYDOJDiDLzcBUn21yEi6TkE88ExNEc5dZZ/cUqNGvqkTunUN0yQXZJjXIDDKE42eZiCPAkacIQEKUQ5aZyulzwKB51tCBT3qMMX4pLCQI6ixFjxo9NibpGopKiFCJBNYQ8a1cfpCmpaSg4oRgypSUEYHEQJW1khkxJjYN26E8EPvO8pLikv2jyvBcC4lPoBUykb3vYt0y7MGsUjWpGinR5kv/QCbQdbBb9PXSMEc/B2WLH3p3lES8nWQsQpRDlllUUJaBjOfJ5pbolc5TFkOKEQNIScLbZsb98X9LWL9IVE6UQacLd8j/+xOORUZrb7a58TAQCljFZYj5KhIYSGYdEQJTCkPANPLGLHM1uN9mOmDyZjiQkDoHWfY0Bo7zEkVwkFQKhExBHc+iswhJzFU1JbVEakD93JFgltB+S1cxhARuFTGTvoyhAliJiTkCUQoyawO1wqU5mLe17pNHKgC1GzdBvsbzavLm8QZ0UwIchte6pU8/UtozOonMxZM+qfgHGIIIugzbEmz45BiUnR5GiFGLUjnXrqmAqSEPeXN7iV8xIMWqG/oulAxT2/HMjbLXtatztj6+BNk2HY+85o/+0EiMmBHiTyaKcopiUnQyFyitqjFuRDxl3O+U4zhg3Q6/F85Th4rMnBDwvPK0EPMKTEJ8EHE027Ni4PT6FSwCpRClEuZFMRhM0tC+/L9StOwye/y4hfgmw/8eYZ1YF1GcaMHLhuPgVViSDy+pA9aEqITFIAl290yAzkGQDIzD7uNnIKMkeWCKJHVMCPFoYfb730JbCBWOhmMXqGtMGkcIjSkC+3RHF2zPz9rZ2uOhwHa1JC8UQHyYI69FWKHvJjGV1weVwBgg95oRSmHPSUfH5blgb2wKejV8wmQ4JMqLso61w2gPTTT5zhhp3x3ubAtLoDDqMP2MaHYRiQ9mnOwKembLSUHLSBLTXt2DfF3sCnqUXZKD4uHFoqWrEgfUVAc+yR+ehcFox6vYexZEdhwKe5U8oRP744XT/MD0/EvBsxIxRyByZi0MbKtB0uDHg2ai542DJzyA5ykieVpigg55s1elOE4bbc2BIN2HPp9vgoANd/MOkxdNpJKjFznc38oL1zqClexPomctmx+6PA00bnNe4UyYR31biXNaZhi/S8iwYPW88Wo80oXLt3oBnWSNzUDRjNBr216Jq64GAZ3mlw1AwsQhHdx1G7Z7AejMrZnZ40340HqwPSDdqzlhYhmVi/6oytNW2Bjwbe/JEGDPN2LtkB2yttoBnExdNo8OidNizZDvaspzInpIf8Fw+JA4BjYdC4oib+JJ+vOwTLFHWI2N8rupePvL5fqSNzARvyxyLMM1UipF1uTC7TMjJyaHFWYFfh8zMTOj1ejQ2NsLpDOz4s7OzodVqUV9f71174VeBvLw89VNtba3fXVqaQSu6uRxer9HQQLN6/IJOp0NWVhYcDgeamgKn6vKW4xkZGbDb7WhuDjS3mUwmWCwWWK1WtLYGdmRmsxlpaWngs7Hb273OYl+RnIbTtrS0wGYL7OR89WY5WB4OvL6E5e+r3rm51K7knO5eb77HzzgP5uUfmCHnyXyZs39g9ixLsHobjUakp6eHtd7MmFn719snD7cNtxG3G7eff+A2ZTYHDx5ExZH9+HzrSmBBBrQxePGxHmnBqPJcfP2CK/xFlOsQCYhSCBFUuKL5lIKpKB0KTUVt3nkUpmHpMBdlhKuIkPNxflyP7110o9oxhpxIIgqBEAjwy8V9f38IyqKsqB83ywdXLdaeiFkjpoUgqUTpTkB8Ct2JROlz45ajtHCtGTkzC2OiENrW1+H8OWeJQohSe6daMTwy+v5Xb0Z6mzHqVdcadcgtkK1kBgtelMJgyYUpnbPZDp6WGu2gr/JgVNGoaBcr5aUQATZDzRnh9S1Fs9r2eis2rdwQzSKTqixRClFuTrbZak1d/v26zdWwVrdEVQonOUezLFmqPTqqBUthKUfgwNr94HUD0QxumixRXxfot4lm+YleliiFKLfg9BnTYSnOjHKpgcXxFEuTxTvvPvCJfBIC4SXQWEuTEGi2nYTEISBKIcptpc7ioTd1HS2C0sVovjvbXOcsmBvlmktxQkAIJAIBUQpRbqVtW7apK5izpxTExMHM1XXTJm911TWDrjnPLPH99JaJ7zn/7S34x+krni+9f3zfvUj8/fiTT7Fy1erOrEORrTOyXAiBBCfQZdxO8Iokmvj2Bqu6eM2QY476iIF3+1y/ZB1OKzlpwNhef+M/+NeLL2Hbth2YOnUyZs+aiVu++x2k05x/Djyn/98vv4qlyz5XO9aiokLMP/kk3HIzxUn3xuF4GzZuxh//9Bg2bNiI4cOH49jZM3HN1V/HxAnj+XFA4Dz/+Mhj+PDjT3HkyBHMnHEM5Xkirr/2GwHxwvGBFcCdv/qNKsfx8+biI1IQz/z1OVz+lUtx4fnnBhTBcX/w45+ijtZiPPfXpwKeyYfYETDkpuG4onmxEyDBS5aRQowasGlnLaxVLerKT16nkAjhtdffxDU33Kgu9Prm9ddg0sQJWLVqjbr4i+XnTvInP/8Vvvv9H8JJi5uuu/ZqTJ82Dfc/+DBOOX1x56KtPXvKsWDRWdiydZva2Z56ysmoqNiP/fsre2DgPH/8kzvx29/fj7ElY/CNq69EdlYmln/+RY+4kbhx8OBhvPO/9/HD239KC+ACF7+99/6HePZvf8d/3n6nx6K/SMiSiHnOO/V46LOjOy2Vz72wZHa9gCQit1jKLCOFWNKnsnlLZoW2T9Cn6WMsSf/Fc+fHI4KXX/hH0PUNr772Jp559jk88Iff4tpvXNWZ4eWXfRmLz74A9z/0CO6565f45LMl6qrfp/78CI0QZnXGC3bBK4BffuU1LF60EE889nCwKOq9mppabN66FcOHDcOUyZPU/PnBwUOHkEarmnnl8rbtO9TV0CccPy9Afi5j+46d6mroOcfODloG5//sc//ATTd+U33OK3rv/u3vg8Zl5bF12zZaoezCvLlz1FXfvojNtHp69eq14BHUhPGl6gphftZEq7T97/NKZg7l5Xuxj5RlK63IPn7ucSgo6No+guVmxVpVVY1p06ao9WyjVdsjR/B27OoREKRs92H37jLMOGY6jciGdXJRI0ThV1p6GhRXdLdzsda0YdWmlRi96KIo1DD5ihClEOU25e0fdHZ95/78jTtr1G0u9DHa5mIg1R89ahRaaBuJ1WvXYf5JJwZ0MPxGv2TZMuTn5+GqKwO3F+CO9tyzz8Tf//G8qhSKi0eqxX62ZJnaWfHWCb0F3jphzJjRasdWsW8/xoweFVAup3v9zbdwzfXf7rw/85hpePnFf6myXHn19WrWlQcO0NYTdeo1K7Ztm9cio2OLiAsv+T+sWr1GfTaiqEjdaqK7GYtNVb/7wwO48mv/hyzaduINKpOVDJu8/vb3f6pp+Rffu/TyK3Ho8GH1Hnfizz3zFE6is7k53vdvu11VrMzxjIUL8Oq//6Uqm1t/eIcqD99fePpp6v1HHnscv/z1PWo+/IsZv/LiP7HojNPVezfe/H3VVMcLxTgwG95u4pMP3lE//+rXv8Ejjz2hXvOvSy6+EH958rHOz9G4+OKTFbCVtMOYG8XZbqQs20mJShgcATEfDY7boFNNnDwRaTHY0sJfYEWrQeHoQv9bIV1//cqvgk045190GS6+7Ktg/4L/Hjhr120I2slzp8VmJO7weN+cU+fPx2mnzsdd9/wOx88/HU8+/Vf1TTmYEJz2p3f8CKwQZs89CTd97wdqB84dJIe6ujp895bb8PWvfRWVe3di+6a12FNeoZp8fPlxmX984Pc4sHcX/vLEY6ocH5F/gsMjjz6u5vfU43/C0UMVeP2VF2Aym9Rnvl8swy3fvVFN98STf1H3IeJRwtdJQUyd4t09leOyTLf9+Ce0x1EOtpPSOVixG8dMn6Z2+vzs57+4S01zoGIXjhzci0ceuk8t4s5f3q3eZ/mrD5R33j/v7LOwZsUSVa59e7ajtHQc/v7P59U0zIN9Nz/+4a1qOds2rVH3f1If0q8ly5bjYarbg/fd663Xyy/gldfewC4aNUQzWNutNLOh98kG0ZRFygqNgCiF0DiFLdbRI0fVxTyGfDP0GYaw5TuQjHhK6rTjB77SlM0dyz/7CL/6xc/ozX0Prv3mjTjngktQXe3dhbOanMBGWsUaLBhNXrsym0HS0sx4nTqpZ+itNYc2grvjZ7/AifMXYvWatcGSqqOMrRtX44brvoG3yIR15rkX4dYf3q5uLrd+wybVtDJ92lRyWm9CGfkrpk6dgg8/+rgzr6lTJuO8c86mTjMN7L/gwBvWcUf9+RcrUUIjkcsuuVg15XAd2QTVPRTk5+NnpJx4tMBObzbp/Oi2WwOitba2YQWdwc2mmnJSTBs2bsJ46si5M+bAprJ33/sA//jXi7DRxn4+Mw+PpPj+3//5QsD9cePGgn/K91aglsxXJ5LZa+eu3WpeH338ifr3W9dfq/IsKixEKcX1hSVLl6uXY8eMwRcrV4N3aeXw6WdL1b/ySwj0RkCUQm9kInS/jN7U2o+0IrM0l47jjI0zzO1049Deg4OqIXfo36fZRhvXrsBv7/61OsPo36+8quY1edJEtQPrnjF3vvvozZaDr8Plt+8vkznjw/+9pSoIXr/x+/sf6p608zObdf5w72+waf1KfOXSL+M5MkWtW78BR2tq1M6d7f2//s296g/b2lkxBAu6js7R92zXrjLVB+H73Nffb95wrboK/F5SDN+76UaMKvaawXxpajp2hOWO95d33aP+rFu/UTUHcX2feerPOGX+yeSIvw1Tph+Ll199XU3KJh2+f8sPfhRwn0cz02bOxfEnL8CpC8/EP59/0VcU+Sx2qNdZ5HQPFqqrq9Xb95CDnrnc9ZvfYe5xczBiRFGw6HJPCHQSEKXQiSK6F3yGAS//Nw23QJ8e3dkZfJ7D9jVbh1Rh9gP4fAebNm1R7fmnUsfGb7Ld3/h5q+hXqAP80uIzOh2r/oWzKekY8gOspDfa/gJvMf21Ky5Xo3HHyA5bn4npg3f/A9/PT358W39Zqc+nT5+qTp9lRdJfyKQtSv769OO49Zab8d2bvt0j+vBhBeq9C84/R1V2rPD4h/0GHNi/8Cyl37llPRYtWogbvn2zOqPJd3/H5nUB99kUNW5cCaoq96imseuuuVrNh3/5zFabNm9R77Hi9Q/FI70K6+/PPtXJhNmcd85Z/tGS8tqQn4aTFs1PyrpFo1K9e/iiUXoKl9FS3kAjhTR1xAD1ZIX4h8Gzi9qt7eARAXei/3rh36rkV33d61j+1jevw9N//Ru+fNkVeOiBP5A9fSoOHDiIX5DDk81GP/rBLWolWWmwaWUS5cPmI3Y4s4mjt4784Uf/jNHFxZgwYTwOH65SZzGxs/iC884ms4hOdSg/8NDD0Bv0OIbMSGxCMtNso3k0W6evwMpk8Rmn44MPP1ZNWF++6ALV/MOjmu6OZl8+i6kz559ggWc4nfWlxfjX8/9WfQmnnjKfTGvVqCaT4ZcoDZu+uM48WmIFwuW3trbgf++93+O+3W4Dn5fAgdN/vuILfLpkKXR09gKHLy1ehIy778VXrrgK37jqSmyhRZH/e/8Ddd0IP2cZf3ffg2B/xfU0NZjXgrATfNqUySghv1C0wvwvnYI3W7ymrmiVyZMTfLO3olVmMpUjSiHGrdl2uBl6ixH6zOiOFgZT7b0VFXjyL38FT8/kMI1MNL/+1c/JcXyy+pln5Xz8/juqeeSGb9+k3uM3WI73xqsv4rg5x6r3GhoaKZ9nwesVOPCMJV73cOO3b1A/+//i9CtWrMKvPvht520uj00xPNOGA8/u4bfuK668Rv3M+f309h+qSoFHNNxJdAbqiDnwwTYc+O17F/lHnn7mb+oPL8YbP34c6WlvPO64fT9qgm6/OB9+zoH/3vf7e/DNG29WHeK+qOyQXrjgVPzpz0+qypDvszns0YcfUA8OevTxp7CeFvH53+cREStJXvMxc84JavzJNEnB578ZPapYZfrEU8+QUvlA9ZXMpH21eGdSDuy/4KnBt9HiuldpfQkHdlQ/RmVGUykwfx8fVYgo/OJR+LLVS3DFud4RZRSKTKoi5JCdKDfnDpph8lrbh2juGCm0VzVH/eQ1R5sDxiU2fP+qmwdV+8NVVbRy2QnumHoL7HT9bOky/Oj2n8HusNNb/bnq2zJPp/R1yA3kR+BOjp27AR13kEx5ZLKXHK55ebnqKWXdo7Dy4GmgnA87XQca+NQ2Xl/AM4fCEepol04+vWwUMfLVl/Ntp9k4VcSPO2b/zrK3+3waG/tNCulN3z8+58V19t3jU+WKRo/H5Zddgidp/Ycv8Grwg4cOqwv+WNFEO/z9zX/iwIQmmMikE60gJ68NjbSMFIbGb8Cpx1BnYDpqUZXCgBOHKQGv+Bw9cfAmhFA6XZ7pc85ZX8JpZEJ59M9P4GWagcPO4PKdmzs79Ww63pF/Qgnc2fObbm+BO0ffbJ7e4vR1n00//BOuwMolmIIx03TXsWNLehTT231+0w7GmxXq78k8xA51PcV54823VQXBSsE/sBmFZ1fFKrhpOqp3HBUrCaTcgRIQpTBQYkOMf4hs7PY2K8wj0mGwGMAjhWgHPjd3wsxJUSmWlcPtP/qB+sMjDD5TWMLQCRj0BnVU9Az5cDaSo59NdLwGgxe+SRACQyEgSmEo9AaRlp2YVqUNGePpgPdBpA9HEp59tHfbHhwzZ2I4sgs5j2BvvCEnlogBBHhqMG8ZIiEIAfqP5W+yCxJDbvVBwM8D10cseRR2Am0HmsDHBlpGZcKQFT6zRSiC8jqF8q17QokqcYTAkAiw+YvsWkPKY6CJTQXpmP+lUweaTOJ3EBClEKOvQtvBZtjq20kpZMGQHV2lEKMqS7EpSICnpBrzorjvETHmSQkOuyMFaYenyqIUwsNx0Lm07GsAn60gQQgkIwGbzQZPlPc+stMuqZ9/tCwZcUalTqIUooK5qxCeimjK65qexyMGe6MohS5CcpVMBFZ89DnsdYHnUCRT/ZKxLqIUotyqRSNHwJATW3ORVq9g4qzozD6KMl4pTggIgSESEKUwRIADTV5BC7CsR1uQXpIV1QU9/nIqei1GTRj8OgX/vORaCAiB5CIgSiHK7XmYVpfaG+20EV56zLa24CmpO9Zui3LNpTghECUCtNDRnNZloo1SqUlTjCiFGDVlc3k9jRhakVGaE91Tqai+PCX1YPmBGNVcik0lAmm0eFGjjW43w1tqzDvt+FTCHNa6Rre1wip6YmdmO9oGR7MdZh4xZMT/ZniJTVukjxUB7pyj7UPjl57WptZYVTnhyxWlEOMmbNxdCxtNoZMgBJKRQHNjszoyjWbd7HVtWLN8VTSLTKqyRCn8P3vfAdhWdfX/e0/TlmTHjhPHmc4ehAzCSBllbyiztNCvLYUOKG2hlNWyCnxAW2bhAwqF0kkp4186aMsMKw0hhOy94yzH25Yta733P+fJkiVbtmVbkjXOAUVv3HHO78r33HvOufemuTmn0X76hTQ7CJMxY2j1hW/T8q1S9FEgGEhLXVJJfiOw9P2PEUjz7zu/ER+89KIUBo9hv0oYTnv9m4fobOYwoyaKPhq1YByCwWD4kXwLAklHgFcWN7Y3wZoFZ4UkXfgsLlCUQpobb/PGTfDQwTquqaWGPyHN1UeqOziqBW6I3TUCiFwkHYFPV30Kz2g65jTNex8lXZA8K1CUQpobvK6uHv5WOuSmtABmhyXNtcdW9+yHf8KHS2U7gFhU5C4ZCOyt2YcPaz+F49DSZBTXrzJUixklSTosqV8V50hiOXktzQ357keL8IG6wnC+WYttMBfQcZE2M30PjYLwbGmCY7cJM8ZNw5jiChx66KF0qpofq1aFjocMw1NIcd+zZs2i08nasH597BqHYjooZ+rUqWhsbMTWrVvDWYzvESNGYPyECaipOYjdtG14NI0ePRoV9Nm3by94/UY0TaA8ZXTQ/a6du+j4z9roV0ZdRcVF2LJ5i3G6WfRL5rGAtpVet3Yd+DS1aJo3bx6d6WzCyhUrY0xnfIDPYYcdBn+A5O44FjOcjw/emT17Nto8JPe6WLldLhedrTwdTc1NBi/hPPw9fPhwVE6cSLzXGDJEvxtFJ8ONHTuWzpvej71790a/wvjx4zGSznDevXs3Dh48GPNu8uTJxhGkjDFjHU0zZ86Eg86t5rbhNoqmOXPmGMd0cpty20bT4Ycfbmwg99lnn0U/NtJzPsZw7dq1Me/4TIwZM2agpaUFmzZtirzjHVFbFQ+sU5z4YNvHUEYNzW+aGbq45HSMt1REeJOLxBGgfW2FhgIBf5MXfNhNYQU7ndO7tXC0vAVTi+EfG8An+9dBa1qDtw4uNxRWS0tsR6z6LXAd/ASaJ0CdQX10ETDrNjgOFiNAIbatLbGdlcVcgMICF+1/0w5PS3NMPlu9A3azA+31rfC2xJqyCupoS3HdDk8j7Q3VErt3jqPuM5i9VribGhF0xzrpF9WshIkUbXNzPXRvrDP9vYOrwafONbFsQTJrdJBOSoHf6UEdzS014cfGt+I1482DnyLoDcLdEjqbOpzApFnhPLgEAeKhm9wmOwoPFsHf6EVbS1M4i/Fts5Hc1vhy2+tcsKEAnobucheS3Ba/Fa10xnWgxRtT5qKaFTC1WtDS1ACtPbbjX1SzCuxHamom/gOxfqQPDq41NqzrKjco/dsHPwMvdOwqtxrk38LHCNKxru6WhggfuqoY28AXtrqGVCEEqd3ra+oxfrQohUjj9ONCZgr9ACsZScMzBW+dB/YRhQh6yJREi214vYKQICAIDB4BOaN5cBiKT2Fw+PU79+xDD0HhGFckH++QGmyPHdFGXsqFICAICAJpRkDMR2kG3FVURKaPobO1pllcqU4QEASyDAFRCmlusDWr1qBVa8awQ0ZAIfu250BLmjmQ6gQBQUAQ6BkBUQo9Y5OSN263G0E1ALPTOoTu5ZSIJoUKAhmBgMluQfnoURnBSzYyIUphiFqtYfUBWqtQiJJ5oygixjREXEi1gkDuIWChFdQzJszMPcHSJJE4mtMEdNdqgp4gNAr3sxRajNDUru/lXhAQBAaGQIAi+vZXxa57GVhJ+ZlLlMIQt3v9iv1o2xsbvz/ELEn1gkBWI8BrODav3ZjVMgwl86IU0oz+/AXz4RhfHKk1QIvBeP93IUFAEBAEMgEBUQppbgXeNoFXMgsJAoKAIJCJCIijOc2tsm3dVjQ31qFkPjmYSSVLSGqaG0CqEwQEgV4RkJlCr/Ak/2VJSQkKGk3GbEGijpKPr5QoCJgLrRg/aYIAMUAEZKYwQOAGmm3MmDGYsGo0Vi7ZDPvwApQdOQYKTxmEBAFBICkI8BqgieMmJaWsfCxEeqMhaPUvn3UJxjSUoJ3OZuZdOxXaXVJIEBAEkoMAH/+5a9uu5BSWh6WIUhiiRv/+5ddgvKccB/9bheatsVtRDxFLUq0gkBMI8GCrcW/s1u85IViahBClkCag41Xz3Uu/jYrGUvhqYs8SiJdWngkCgkBiCASq2zFt7NTEEkuqbgiIUugGSXofXHv59zCmbYRhSkpvzVKbIJB7CPibvahoHW6ciJd70qVHIlEK6cG511quufQqjNhUiEB97GlavWaSl4KAINANAdvHflx1yTe7PZcHiSMgJ68ljlXKU27dvRXuMj8+WfEJ9u+I3btlzPwJKBpdgj3Lt6PlQOy2GJWfm4KCUid2fLQJ7U2xR1dOPWkmnf9sw5a31yLQ5XjK6WfOMWTa9O/VMbKZ6czoqafMRsDjxZZ3N8S8sxcXYOKx0+Gpd2PnktjzmF2jijB2wSQ072vA3hWxjr7SCWUonz0W9TtqUL0++lxiBSOnj8LwKeWo3rAP9dujzyVWMHrOWBSPG459K3aiaV/nUZ8K7TE7/qhJKCxzYed/N9PxlZ3nEvO7ScdPg9VZgG2L1sPX1nlkp6IomHb6oVBNKjb+e5VxFGVYQDMdQTn1tEMRaPdhyzux5zHbXHbYiuworRyBnYu3hLMY386RRRh3xCRql0Zqn50x74aNLUXF3PFo2FWDA2uj5QbKppZjxLQK1Gzej9ot1TH5Rs0eg5IJI7Bv1S407ek88pITjae6HFTn7qVb0Vrrjsk38dhpsBcXYvv7G+B1xw4ypp82G3yo/ab/rIYWdRwpYzH9jDnQ6PzmTW+uiynPSuGdk0+cBZ/bg23vb4p5VzjciQkLp8B9sAlVy3bEvCsePQyj51eisaoO+1dXxbwrnTQS5TNHo3ZrNWo2xf7Oy2eNQenEEYTVHsIs1i8w9rAJcFWUUF3bqc7OvwG7zUZnbC/AURPno0jtPMAqplK5SRgBUQoJQ5W+hHzwetdD5/mwdKuVziWmrbd9vs5Ojrkq4oN76ND05uZmBAKxp7gNGzaMFsmpxkHvmha7nUZpaakhVH19rKOb03M+Tt/1gHiuh+vjeri+aGL+mE/mj/mMJl7JXVhYaMjV9WB5fs7ve5O7tZXOcfbGdnIulwsWC51LTAfIdz2Qvri4GCYTnUvc1IRgMPZcYl4rwsqhoaEBuq5H2OxNbi7ruuuuw+OPP94N/97ktlGH5XA4DN5ZhmgqKCgAfzwej/GJfsd5OG88ucO/hXhyh38L8eTu6bfAWDAmjAVjEk0sN2PJGHKZ0cTYcxsw9sxLNIXlTsVvoevfALcby83fQoNHQJTC4DGUEvIAAe4w77zzTvzkJz8xFFgeiCwi5ikColrztOFF7P4jUFUVawbpfwmSQxDIfAREKWR+GwmHGYAAm1gmTZqUAZwIC4JAahEQpZBafKX0HEGAzUfbt2/PEWlEDEGgZwREKfSMjbwRBAQBQSDvEBClkHdNLgIPFAGOkhISBHIdAVEKud7CIl/SEOgaSpu0gqUgQSCDEBClkEGNIaxkNgK8pkBIEMh1BEQp5HoLi3xJQ4AXmQkJArmOgCiFXG9hkU8QEAQEgX4gIEqhH2BJ0vxGQLZRyO/2zxfpRSnkS0uLnINGoOveUYMuUAoQBDIQAVEKGdgowpIgIAgIAkOFgCiFoUJe6hUEBAFBIAMREKWQgY0iLGUmArxVtJAgkOsIiFLI9RYW+ZKGQNczG5JWsBQkCGQQAqIUMqgxhJXMRoAPqRESBHIdAVEKud7CIt+gEQifzsan0PF1+H7QBUsBgkAGIiAnr2VgowhLmYMAH4d55ZVXGkeThrnisxX4WM6RI0eGH8m3IJAzCMhMIWeaUgRJBQJ8VvLChQtjip41a5YohBhE5CaXEBClkEutKbKkBIHzzjsvUi7PEi6++OLIvVwIArmGgCiFXGtRkSfpCFRWVuLwww83yuUjOQ855JCk1yEFCgKZgoA5UxgRPjIfAXKxoqmpCV6vN/OZTTKHJ510EpYtW4bjjjsO1Qerk1x65hfHazRKSkqg0H9CuY2AOJpzu32TJt1bn7yD1z/7Nw5Y6gBT0orNqoK0Ve1Q59iRl/0imc2GuZ04a+5pOPfYc/ISgqz6sQ6CWVEKgwAvX7I+9vqTeNb7N+yfqMNvzRepRc6uCJgDwIh9wMWNx+LuL98O9q8I5R4C4lPIvTZNqkQvvvsSfqf9E7uni0JIKrBZWFiAjM37xwMvDf8QT/zjV1kogbCcCAKiFBJBKU/T1NTU4F8H3sG2STREFBIEOhCoHqPgnfYlqKqqEkxyEAFRCjnYqMkSqb6+HltVshcICQJdENhmPoCqWlEKXWDJiVtRCjnRjKkR4mBzDRqd7akpXErNagTanTr2Nx3MahmE+fgIiFKIj4s8JQQsMMOkiTNRfgzdEVB0ehbkf4RyDQFRCrnWoiKPICAICAKDQECUwiDAk6zxETBGkfFfxTxNNB0C/RuRcrnxPjGVd7npmr7L6yG/1XwatP8cgLa7bch5EQZyGwFZ0Zzb7Zt26QKPboZW3Q7r/XMidWvrm6GvbYJ6dBmUsQXGc6U1iPZbVsN88kiYzh8TSdvtYmkdmr75GVxPzYd6bBl0NlnU+aCU0oIJc3fTFnfu/gc2IljliSlKKTTB+vNOnqJfMn+B53bAT9+mMitMs4thvmQslInO6GRDeq16gmi6YQ2ct88AxhcOKS9SeW4jIDOF3G7f9EtnVeH5R3VkRMuddOCF3XDfvRHaG/sj/ARXN6D9vVoort7HJVpFAQpOHQFU0EpiIn1HK5pP/gDavthOP1ywTnpCGV0A0ySH8VEpX/uiWgQ2tYSTxHzrO1vRcslSBDa3wHZuBcxHlULb44FOHyFBIB8R6P0vMh8REZkHhYB6TBnw5A7oy+sjI1rfx7Q1BnXWgWUNMF0ZKl7/tMG4UI8oNUw9elUbtL1kGqERsTq3BBgeWjqtklKwXjcN+kgbnWlAGmZXa6iADqWgjbJDJUUUTab/mRC69evwXr8SapkF9icPi04SudY7eCu871Dg0GLjedc/ClZsrCS0nW4o04ugjrCBlU+E2oKGsqLTd4CpLii2Dn5IFm2zG2immc0kJ5QxoVmSke9AOxS7CZpdhUJptFY/lMMIi3BeSqSQySi4ugkKzV7UYSE8InXShe6m9SOr6OCfcsJggoMiA6KZik4Z/5rlCm6gWdymZoDqAs2+TMwDfcfIFz+7PM1RBLr+/nNUTBErXQiohxRDdagIflIP0wVjoZMpKXjAh4Kzy+H5VzVs5B9QTAr8/62D7Sjq/IssCPx2J9wPbYlhMWwuwtpGNH3tU7ieX4Dgv/aj7WVaN0GdWcu3PjPSF714JEB1diVWIIG718FHisjx0kKoNHuIRwopHaYAmanMM4u6maS44/Q9vAltz+82FBunLTirPGKK0j6sResNq6C1UadKZB5nh+NfxwHb3Wi9ZgUCezpDegu/XQnL96ca6dp/uNL49u9rh1bvN67VQhWOd48n/OjPksxfzRf/N1KuZRp1+lEUfLkK7rs2QnWSYiFTnP3oEtieDu3kGpWsx8vg4hoEXt4DrdEPEykUdRzhsKsN7vs2wnpkKax30k6wZHITyj8ERCnkX5unVmKy89tPGYn2j6iT5ZEzjWR5lmD5WqWhFLQtLUYH7V3TAuctoQ5SOWkkXPThjlun0bXn0o8ReHUPrORDiCbLDTPgInt/y50bUPTnI6GPLYReZI67OZv++13wvLYftoUlUOu80GmUzsqoKynUAXKa1l9ug+W1fbBdOg7qeWOgOEN/GvondYZCcN4xA6YLx0JbVoeWb6+A5SqaNZTaDIVgmeyA9UfToc4ipVLjNWY+nns2QCNZWJlhigvBJ7ei7emdcH1uONTDSw02gtQhO+6YCfVzZdDeP4iWG9dCX1wLnDYK7XesBWgmUfSrw6DPo7OhSfn4vxtSJJy57cHNKLiwAta7Z4Od0Gq9r6toPd7rpLC1D2phuZ547uKfcN40A8E3D6Dtq0tR+MejSAOKYugRyBx9ETvvzlEhRaz0ImA6bgS0Oj9Usv9rpBSMGcEMF42ATdDJHKKvDCkKEzmembhjMo2jDr6qFUqDD2bqBAOUtxvxyLWwo7OmGYY6jD5q947eyEcml8LLxgLt5KClmYb/xlXdijMeUKdnfWYBXA8cCrXYAvfPNqP1/MUG3/zev5TMYFSFQjzqKxugmEN/MsElddDWNxkjecsXx0JdQLMe7kC5kyVzkndZI+wnjTAUAPNp/nqlUZ3G5qoOMk9xQj253BiRK0cNDz1toFkDm704/8kjoMwnpUYbz6lzSTFEkYVMXd73a6H9vz2GmQlkRkuEgn/dA9+Lu2H5MSmjLgohnN9ESqnw1aPhPu8jMn2FZjHhd/Kd+wjITCH32zj9Ei4MdXBB8hv4qFO1nV5udN62z5Ui8Gk9VLKBm0aRjZzs7Ew8OnbfuQ7Bap+hODR3EJYpg4uwMZ0zGvyxUPnmp7ah9cntsJApS6G6uxJ3ujhjFOz0sVKn3XrtSvgpj/2pBdBr6ewImvB4/29rJJt1LvkVuBOuDY3O2V8QTRopNiY16rne4SjXDsY/iyJ6FqPVhExO0fmjy+drO0VSKfdvMGZN6s83wXnHLChnV3RNFnOvk8/GS07/wpePjnne003hg3PhJdOY7ZnEzVI9lSXPswcBUQrZ01ZZwymPjG3zi+D/9wH4N7ei4JYSw3GpHlECz9M7YB5mhvVUGiETsc2+9X83wEyj1kKyxZssKrz3riflEXJED1ZoLl8ZZQsVs80NxFEK0XWYaMRume6Cb2UTbKQr2NHNMwXbI/MMB3N0WjbDGEShrIgeyZMjmvMEKQw3bHxROhzkph58G9HlqiNDiiu4Jio/yRFD5Ii3UadtudmLwM82ovnmtSgmE1xv5p7An6tg+8bEmGK63jBeYSezOmcYOenJqU6KXOkweXVNL/e5h4CYj3KvTTNCIsuJIw0TCDOjdDiCTdTJsFnJt90Dc4fpiN+rVupBufMme3zwn/sQ+Lijs+WXXUjpMJPobx0AyBSFpu7mjcCvt0N/qxr6FjeC/9kP73M7Yakkn8KRHSaaqDLZvKX9eTeMDn5jC4K/3wnviibYL59gpDJzNBVR4MFNwApSVOQADi6iPX8oWspwqg+3wEP+CzbLgPJrH9YY0VAcRuulkFuNfCPaqib42JFOYqqES59EfhnO73mdQnuJH41nXOSTiBCZl3ghG8vHMwyOTuKyjQiiSKLuF0Eyyakds7jub6kIagPfXetiXpnJ5xJcQeY+obxBQGYKedPU6RXUCE19ZKsxYwhHsXA4p9F5cefINngiHpXavjsFrXeuh/eMjwyzkmWyE0E220RT+EAXsqXbTyqD+9Ft9HYbXH86kk5D64w+4o4tSJ1w62P8PkSWyTQLuWd2t8gi4y3ZzNvJpOLfGVqXoFInz74I01dDSgFUNi8Yc9+z0XCUcx5WMAV3U3QO+UEcj81H+61r4L5jg1Ecz5Ds5FOx3DITGj1v+WnoOb903kMmHpqFMOncmYenEfyAO/Xwhy6tPz0EWtNKtDxAyoSIo7fC73WKrPKx8iJnPROb4rhskE+kJwr6NQRoRmPnRX9M5ARn7Dkslolxa79yGTnMpxn3kX9o1heZEUUeykUuIyAnr+Vy6w5Sto+XfYxv7b8DVZMHWVAi2SlUVacIGn0ExeSHFUBv+XgNAMX09+Ro5pXP+l7q6Nn5y3H+fZXJDlVSRFolhWfGc17T6JzDa43FdvE6X5qxGB19R9RSmHWd/At6SyAUEhtnBXY4XY/fPBPidRhxooB0cqIr5KPQKJy0L/k0igRrmf82ileeGqnK//BmqKQk2AnuuYIUwjWTI5FR4UT6m9Xw06zL+sCc8CPju3yPjvvM38VFJ18Q81xush8BMR9lfxvmhgTUYSq0QK2vzi0iLHWScTvvjgRsVuHoGl5ollCZFM3Eju8ey6SFYcYWHfEUAtdJz8NhrBEe6UIpIYXEUT4DUQgd5cZTCPzKGOWzjH0pPErLaWzHDI9ZCW65nhYF0gzC8/3PYP3elG4KgevQ670wzQzNbvheKPcREKWQ+20sEgoCBgImMr11NQWZvzUJthtovUKHOa8rVLyiWqWtP4TyBwFRCvnT1iJpniOgfGU8/H+pMvwH0VAoZDKLR8H/kqOcfR8dgQLx0siz3ENAlELutalIJAjERcDsoj2gbpqO9quXd1MMXTNou1vhe3wLbOygF8orBCT6KK+aW4TNewRohbT1h9PQfuMqmC4aA8vCUMhtGBeNNtkLvLgLgcW0N9WfFoYfy3ceISBKIY8aW0QVBBgBDotlx3KAwlp5JbmZ9pBSpzig0xYbviW0Ap32fyr4LW00KJSXCIhSyMtmF6HzHQH2I1juOARmmhnoG5vBhx7pJRYKPZ2b79DkvfyiFPL+JyAA5DMCHEYb3sKC184JCQLiaJbfgCAgCAgCgkAEAVEKESjkQhAQBAQBQUCUgvwGBAFBQBAQBCIIiFKIQCEXgoAgIAgIAqIU5DfQIwImkwlB+YX0iE8+v9DIK22x9Lwraz5jk+2yy598trdgCvkvKSpBaXPHVssprEeKzj4EHE0qRg8blX2MC8d9IiBKoU+I8jdBWVkZJulj8hcAkbxHBCYFyzFmhPw2egQoi1+IUsjixks168OGDcMFE8/ClNXyM0k11tlU/oRNCs4ZfjIqKno/EzqbZBJeOxGQxWudWMhVHAQuOPo8uNGK51e/gu3j3WgcFidRCh8pGu3pLzqpG8LRZyl3e5miB0V0+um4A3Z82XkGrjj16ymqRYodagTk5LWhboEsqX/15tX4+/LXUd/UACWBQ10GI5ZGBzZr/iCatjeiePwwmAtk7NIVzyCdPFe9fC+sxTaYCB+l47Q4S6EFjlEpOBSHDrBz2Z04fc4p+Nycz3VlR+5zCAFRCjnUmOkQRadjHb3eLucnJ7HiYDCIV199Fe+99x4uvvhinHTSSUksPbeKuueee7Bly5YYoW666SbMnp387a7NZjP4I5T7CIhSyP02zgoJWdm89tprWLp0KY455hice+65WcH3UDLpdrtx/fXXo7Gx0WDD6XTiueeeS/lMbihllrpTj4AohdRjLDX0ggArg7fffhsvvPACzjzzTFxyySW9pJZXXRFYtWoV7rvvPjCOjN/u3btxxBFH4KyzzuqaVO4FgYQQEKWQEEySKNkIcCe2YsUKvPnmmxgxYgQuu+wyFBQUJLuavCjvT3/6E1auXIkHHnjAkPd3v/sdDh48aCiJVJiS8gLUPBZSlEIeN/5QiV5dXY3f/va3RvVXXHGFoRSGipdcqbe+vh6lpaURcVgpPP3005g4cSK+8pWviEkpgoxc9IWAKIW+EJL3SUMg7DdgJ/Lll1+O+fPnJ61sKSg+AuyjeeaZZ8AO6OnTp8dPJE8FgSgERClEgSGXqUNg06ZNeOyxx4yIohNPPDF1FUnJ3RBoa2szZmYTJkzA2Wef3e29PBAEohEQpRCNhlwnHQGeHfzhD3/A1q1bce2112L48OFJr0MKTAyB3//+9wgEAmCTnZAg0BMCohR6QkaeDxqBhoYGPPLIIzjqqKNkhDpoNJNTwJIlS/Duu+/i1ltvTU6BUkrOISBKIeeaNDME2rx5Mx5++GHcf//9KCkpyQymhAsDgdWrV+M///mP4WcQSASBrgiIUuiKiNwPGoEPPvgA77zzDu66665BlyUFpAaBt956C9u2bcNVV12Vmgqk1KxFQLYay9qmy0zGN2zYYKw/EIWQme0T5urUU0/FuHHjwH4GIUEgGgFRCtFoyPWgEFi0aBFef/11w6E8qIIkc1oQ4EgkPj1t8eLFaalPKskOBEQpZEc7ZTyXO3bswLp163DDDTdkPK/CYCcCl156KZ544gloGu1RLiQIEAKiFORnkBQEnn32WVx44YVJKUsKSS8C11xzDZ588sn0Viq1ZSwCohQytmmyhzE2G7F9evTo0dnDtHAaQYB3pa2qqsLOnTsjz+QifxEQpZC/bZ80yXljuy984QtJK08KSj8C7F9gf5CQICBKQX4Dg0KAR5g+n09mCYNCcegzf/7zn8fevXsjZzMMPUfCwVAhIEphqJDP8np5+wr+cAjqyJEjjessFynv2Z8xY4ZEIuX9rwCQxWvyI+g3AqwMfvCDH4C3wI6m2267DXPmzIl+JNdZhMDGjRvx4osv4qc//WkWcS2sJhsBmSkkG9E8KE9RFFx00UUxkpaXl6fkbOCYSuQmpQjwTIHPZWhpaUlpPVJ4ZiMgSiGz2ydjuWMbNCuCMLGSUFX5OYXxyNbvyspKrF+/PlvZF76TgID8FScBxHwsghVAeLbAJ36xkhDKfgQmT56M7du3Z78gIsGAETAPOGcOZeRDSGpra8VZ2s825VElb5Mwb948I869n9nzPnlhYaFxvkQmzbBYKbz22mt53zb5DEBeK4XGxka8+O5L+Lj6U7SP1KD7ZKl/f/8Y9PkK3nMsxaL/ftLfrHmfXmnXMcE/GucediaOPfzYjMCDFT2HGAvlLwJ5qxTYmfbDF2/Gm4ftQKscXTvwvwAJNho4dkbOvXh30wp8v+EyfO3U/xlkWYPP7nQ6jVkfz555JiOUfwjkpU+BjyT8ye9ux1+PI4XgyL9GF4kzC4Et0wP4devLePPjtzOCsVGjRnULN84IxoSJtCCQl0rhg2Uf4O3JEmGRll+YVJIQAmumevCP9f8Gj9CHmtivUFdXN9RsSP1DhEBeKoXVe9fB4xwixKVaQaAHBHab94PPtR5q4nUovF5BKD8RyEul0OxpQVuhnp8tLlJnLAIthd6MWDhWVFSUEXxkbEPlOGN5qRSC/iBMupLjTSviZRsCSob8Jl0uF5qbm7MNPuE3SQjkpVJIEnZSjCCQkwjwYkSzOW8DE3OyTfsjlCiF/qDVW9qADu2NA9B3tvaWqt/v9INeo1w0+fudVzIIAgNF4ODBgwPNKvmyHAEZDvSzAbmTDr6wC8GNLdDqfTBNdsB8Np04Nn8YWn60Bs4fT4OpMnlxrvrmFqNc18tHQS22JMStts1tKJLAkjpoDX6Yp7tg+fI4KEeUJpQ/nYn0/9bC9+eqblWaF5TAdHllt+fJeKBTuykFJoA/Qt0QsNls8Hq93Z7Lg/xAQGYK/WhnfUUD3Od+hNZnd0GhDtp8FHWyPnJY7xn6MMKwGDxTab1sKdr/316YjiyF9bzR0PZ50PyN5dD+vDucLGO+9QPtaF9UC7XMCtMkR+SjlNtSwqNCzeU+80MEaVYnFB8Bq9Uqq5rjQ5MXT2WmkGgzk3mo/afroLjMKPrHQigjYzstrTXQWRKZevQtLVBsJmizi6BSiF+Y9AYf9E20NfEIG9TJ3eNiuQMHfZTxjm51cBmapkPdS2nMVGZFQbhY41ujcw48V38GtdQKx4sLgY6ZhfkbE6H8aCVa7t2EopNGQim3g2c8ionKGG4N5aUtPtTqdugj7cR3x1jBE4RGMxWQ7Mq8YaH0nJrkY3nV0Z3168ST4qSfU0edzKeyxQ3UUT3zS3oflRMb5isnQRnbWZ7BFP2jE0+KnUb0VuJpYzM05nPOMKM8VoB6VVvoPlxvox8Kb1dSRLxsaIbupfSziug+NMvS63zEO72n2QJ2kzIfZoHmJlmorcJYcN3cTgo9x7j+replXPTFtcB2MiOSAlLGFECnwYOJMM8WYqVQUNC9LbKFf+FzcAiIUkgQP+4cfds8cN4+I25nHS7G97d98N2/OXwL+zElsD19uHEffPMA3NevibyzznKi4KkFoc6IOmDfrWvgebMm8t710KGAo7OJuNMP/mwjWl7YA36ndlEK2N+OQFU7XHfNjHTORmGkQCxXTUb7O7XQ3q+B6ZJx8FyxDJa5xbDcS3Uw0Syo6crP4HrhSChzisEmqLbvLEfwQGgfHHW4BY6H50Ils47/ia1of6MarvdPMLJyx9t8+kdw3jAVbPLhjtF33Up4l3TG3Dt+Mg3myyYY6RP9h0f17VSO3hZA4AD5VrgzJ7Id6gJIAUXKJ6VSTHzjUOL7tzvgIXMUK0bGgkkts8D1m8Ohk8mv+aa1xjP3w1sB+jhvngr/m9XQSJkU/uNY451R7w9WAEEd9hdIuSZI/l9tQ/CzBpimuaC6LFAKTdBJwftvWQOtshCWOw9JsKShTcbrFHhfMKH8RKCzx8lP+ROWWu8wEankQ+iNuDNy/Y6UAHVQwQc3oY06cCuNynUa6bbdvg4FF1TAfMsMoC2I1nM+gvbeQagXjUXgj7sMhWB0rOdUhKqwqNDWNIWuqYPUOspzPUgK4fRR3dhQeFTPNKX7DAQdsxKNRtaJWNJ9d603fBgO6hR5duS9bgUCL1XBSkqhL9J+v8vosIv+Qh31jCIEn94Gz9M74PzS+M7ZRnQhJJv/4U2dCpBmKtbbZkWngPOJ+YTpMAR/uRmtv6+C49qcuj2hAABAAElEQVTJsLFC84cUUuDtapgJcyatTYPj3mlQjy4D1jSi5QcrESBlrV4zBUV/pXDLC5bAdStteHUm4Uwdt3WYFS0/WQdtfbMxq9APeOBd2RxSrjFcxL9hJeK9Yy3UQ1ywPxMaAESnNJFC1v6xD+7TP4Dzjc9Hv8rIa5OJZrhaSAFnJIPCVEoREJ9CovBSJ86kW3vvUs3HlRmjaZWUgGlhh2O3iUwR65uMka5pBo1yyayBXa2wTHPC/0FoZhCgbx6NK1+fAJSRaYo/HSYRrtfPneHvquB6YDbUM7orBIO3lg4TFimTrmSYivghjeL7JJLV+1kTzDOLoO9uhbauCeoEBzyvV/eZlRMEPqqFZboDOs1+2A+jjrJDqyOTWlhpxSuFTWz0P38UlS86ietWDi81zFrqYaSU6LXKZjAy4bEJyzyOyw/NaMK51FPoACDq8JUjh8N29HD43iXlyyYoNitRfp2czCqZjviZenI51EJSwB1+hiClZVJOjY9zuA4jDSmE9quXQ1kwDOYvU9v1QOq5o1Hwq8PgPuODHlJkzmNWCnzkqlB+IiAzhQTbXe2wd/MoEmReSYQUU2fnzJFKTD4abSvOzigiNjUwBcj0Yz0k1v9gvOj4p31xAyyVZOf9/Ijox7HXFR12a+aR7ehRpBxsN+6UrianqDThS7anM/k+puilHZ0htmwKS4QC7JsgBeV7ZEskuW1uEc04OuWOvOAL6qQtP5wW16cQk64jbbdnvTzg9WAqRYP53yblS0oqHnEkUsFFY+Ch2YTr+2RO+tcBFJxfYcyQ4qWPfsazJ3U8mYbOHxv9OO61aSKZC6+YCP+9G2C5lUx8GUpsPuJNI4XyEwFRCom2e4f5xf/yHphO63sE2bVYlRy4TDbqdIxRbJcEZhrx+pY3wEZOXcOJ3OW9844ZcN+9Eer3VsD+5GFxHbfqVLJlO1T4X9oD20k0Uo6iIHV4TOpRwyNP9fYeTAQ8SyGynTwSlh/30Hm1x+9gOR/LwkrQ/qej+HZIiU07gdU003HQDI86fzR3X+/BisN0wVhof6iC9ve98K4m09H10/rkm8v2kVnI+tDcPtOGE7A/x3vBYphJabJZTkgQyDQEOoeymcZZhvGjlFjh/MEkw1buvYocsOQ0ZtMImxy0/xzok1udZwFkHvI+sx06OXtBoZja0jqjDM5sPqPcMC/571sfKpcUhMbRMR2kkL2cfRXeZY3w/pCcr+Tc7UZkbiq8mhzKH9XDd9taaNQZcqRT8JltcP/fdthPJNNWxyyH11J4ycyjkSlL+7AG/hd2R4rj6CP7CWVof20fgq/tNUJauSzt3ZD5yESzJnb66m+Rg5aeB8jxHE3WU0bCv9ODIDle9R20ZmKrG/q/9sfnuSOjtpLk5ZlJx4ejtwZM1Fn7H9pk4Oh/bju8SxtQcOHoUHFskqP3wQ/ppD0yi+l7aFZFpJIfxjaP9vy5Y4NhjsJhFOHUB/m3tcA0xt5rZBHPuvx3r4spyXLcCJKTIpSEBIEMRECGKv1oFOWbk+AabkPrYxR90xFFxCNz+5fGwdJh1om2h4e3stHJRq5SFBFH77TdvBrN16w0amUlUXjNZJgoZFO9eBwcFNbJfgO8RE5RKtdx3+zQIitKbYS1kpO36Jn5aP42RcbcsAqWx+bFhLtyoabLK+EkW3rbQ5vheW0/PzKo8KvE4w+mhm9h+dJY+JbVo+WLS0PvvxIyf4TN+bZbZ0C/eQ3ct62P5GEnuZVnIGSvN1OET/MPVxvvCi6sMBReWF58eTwKKVyUFRH4Q8TmI/ux5PgNh7saTzv+oU7afUtsx1lwTjls99MJPszQAIYuvLiw7fmQomNlaLp6ilEZh7eyk9rzLEUpvXEwtNjwKxPAvFu/SKP4Fetgp9F8dBhxNKvR1woFECDaRMjhxKR0uK0NIsXf9rWlcLx5fHQ2o031GsqbocTmo5KSxEyFGSqCsDUIBBRyKNGfZH7Rnb+5B8/M+RCegoHLrXMMO8eks7OTnaQJEoeVqtUUjUSdXde1DkYRZD7iFbc6LeZSwz10gmVHJzPqoVGw//kdaCMlYzuqBJYTR0AhB214fQHH/POMxbjndQ9xiEM11RZyEpNJKOKspnRcPqo8UGm9RY8rg3mdA3V+LKex1iBO+cl+FHiUHPLP7ULxmlM7TUUdaxSi6zLWO3C7WTrlDv51D9w0U3C9+/mQXNEZ4lzrn9bD+9Q22J87wngbDmW1fHEsVPIVtcZRCJzQf98GY42KiQYT0bRgfRGeOPR/MWMGRacNIe3duxcPPfQQHn744SHkQqoeKgQGMAYbKlYzq15eqMWLwPqjEFgCIz1F48RVCJyAOmcjqmYQCiFSDy28stxxCIr+cLgRM+/+2WYEo1Y1G5E35CSN58PgMpg4QocXcEUrBOM5dajsYO1RIXAijvChNOlSCFxlDLEyiKMQOI0RidShENhMpy86iLZHt6LwotEJKQQuQ6eoKJ3WMoSJZxv2x+YjQOZBz42rus0QIulIyaqTCDshQSADERDzUQY2SrJZ4hXFtsdppsAzg1zfWI9mJcbitv6ASGtFmn+xBfbjaOXxdX07mMNFm8ghbyKFGaS1JKaONRKGGer2WeEk3b6NFc80E1SO6HT4d0skDwSBIURAlMIQgp/uqo3RMZt7cph41XR/V06rX6tEMX36S6wALBeOge/F3aQUaCFdAhQkc575LFo0l8GkqioqKjKbxwyGL+tZE/NR1jehCDCUCPAszEKhu14KIOiLfA9QSDFFsZnOG9NX0iF9z2sUZOvsIW2CIa1clMKQwi+V5wICKkVkWciBz1uBBD+p7yYSm5d8FEbMUT0minTKdAoGgxTkIF1DprdTqvgT81GqkJVy8woB3ouK/QvaK1XwPbYFHJ2m0pYaCoWnKoVmmGnFtHrsiKzAhPc94q0uhPITAVEK+dnuInUKEDDz1iIU7WUih76ylxYe0lkbOkWaJXo4UgpYGlCRHKU+Zkxmm7gGJJhkSggBUQoJwSSJBIHEETAc+rTPEVPnKojE8w91yvb2dtTV1Q01G1L/ECEghsMhAl6qFQQyFQE+ipOP5BTKTwREKeRnu4vUgkCPCPh8PvDpa0L5iYAohfxsd5FaEOgRAY4+KiujfaqE8hIBUQp52ewitCDQMwL19fVG+GzPKeRNLiOQl0rB6pCpcS7/qLNVNs1MmyVmwPoAt9sNlyt0+FO2Yil8DxyBvFQKIx1lcNKJmEKCQCYhMKLeidLS0iFnyePxoKiIwmuF8hKBvFQKh42fhxFtg9g3Oy9/KiJ0KhHgbbcnm8ZnhC2/urpazlNIZWNneNl5qRQWzFmAL7iPRXnnGTQZ3kzCXq4jcOKSMlx54tczQkze96i8nA5TEspLBPJ28dotX74R1r9Y8HfvB9jtcqORTl/kXS+FBIF0IVBIB7UVkhnzxF3TcfM5P8TkiknpqrrXenimIEqhV4hy+mXeKgVu1eu/dB1OWnkCPt7+CXbs3A1vS3tON3YqhGs94Iat2A5zQV7/lPoNLW+OV+osxbwxs3HcRcdh2LC+z4TudyUDyFBbW4v58+dnhMN7AOxLliQgkPd/yfPmzQN/hAaGwN13342Lz7oYs2b1fLDMwEqWXEOBwJYtW2Cx0Il1QnmLQF76FPK2tVMg+MiRdOZzBoRRpkC0vCxy+/btmDx5cl7KLkKHEBClIL+EQSHAZhBeASuUGwg0NjZiypQpuSGMSDEgBEQpDAg2yRRGwG63gzdQE8p+BHjPo6VLl2LmzJnZL4xIMGAERCkMGDrJyAjwylceXQplPwLLli3DEUcckf2CiASDQkCUwqDgk8x8wPvWrVsFiBxAYMOGDaIUcqAdByuCKIXBIpjn+efOnYslS5bkOQrZLz7vd8TtuHDhwuwXRiQYFAKiFAYFn2QuLCzE0UcfjRUrVggYWYzA66+/jnPOOSeLJRDWk4WAKIVkIZnH5Rx//PH44IMP8hiB7BedTUdnn3129gsiEgwaAVEKg4ZQCpg2bZpxfOOiRYsEjCxE4PnnnzfMRnLaWhY2XgpYFqWQAlDzscirrroKrBR422Wh7EGAF6vxKuYzzjgje5gWTlOKgCiFlMKbX4XfdNNNuOeee/JL6CyX9o9//COuv/76LJdC2E8mAqIUkolmnpfldDpx22234Stf+Qp4YzWhzEbg3nvvxfnnn58RZzhkNlL5xZ2iE+WXyCJtqhEIBAK49tprcc0118hGeakGe4DlP/zww0a0EfuDhASBaARkphCNhlwnBQGz2YwnnngCr7zyCt58882klCmFJA+Bp59+2tgeWxRC8jDNpZJkppBLrZmBsrz00ktYvXo1rrvuOjFTZED7sLLmbc5PPPHEDOBGWMhEBEQpZGKr5BhPvA3Go48+itNPPx3nnntujkmXHeI0NDTgxz/+Mb7zne8Ys4Ts4Fq4HAoERCkMBep5WidHuvDmeRz+KNszp+9H8Pbbb4M3u+Ow4ZKSkvRVLDVlJQKiFLKy2bKXaY6Lf+655zB69Gh84xvfAG+TIZQaBJqbmw2/Dp938a1vfSs1lUipOYeAKIWca9LsEIi3xeCVtJdccgnOPPPMCNO7du0yVkePGjUq8kwu+o/AG2+8gVdffdWIAONNC4UEgUQREKWQKFKSLiUI/O1vf8Pf//53XHbZZYbz88YbbzQO7XnooYcM5ZCSSnO4UDYT8UzsrLPOwhe+8IUcllRESxUCohRShayUmzACvG3zn//8Zyxfvhz19fVGPt5kj9c5CCWGwJo1a/DCCy8Yp6axMhg2bFhiGSWVINAFAVEKXQCR26FBgO3eV199dcwpbt/97ndxwgknDA1DWVIrR3axMiguLjZmBhMnTswSzoXNTEXAnKmMCV+ZiQCvVq6rqzM672Quhl+/fn2MQmDpn3rqKXAdfLqbUCwCjMuLL74InmWdeuqpqKysNMxuGzdujE2YhDtWOKWlpWLOSwKW2VCEzBSyoZUyhMfFG5fglaWv4TP/BjQOa4cpqCSNMxNtrmprpQX2UZuu2BpN8JQF0F4S9TBpNWZ5QRrgPKDCPZouUkiaCbA3qVhgnoHz5pyN0+afksLapOhMQEBmCpnQClnAw8dbP8Gdi3+BTxe2RnGb7M46GFU2X3a97/I632/npAufIDZiHVYt3wKf6sc5czujxfK9CXJRftn7KBdbNckyVVdX4/4PHu2iEJJciRSX8QisXeDD42uew/pt6zOeV2Fw4AiIUhg4dnmT85VPXsPaibIVdt40eC+Crp/ajP/3yd97SSGvsh0BUQrZ3oJp4H/XgZ1oLU5DRVJFxiPQ4gT21u6DpqXWl5HxQOQwg6IUcrhxkyEaR7l4fV6025JRmpSRCwgE7EG0tbXlgigiQxwERCnEAUUedSJghJ3KoLATELkyIsSM34VgkZMIiFLIyWYVoQQBQUAQGBgCohQGhpvkShEC+qYWaG9Xp6j09BSrfVwHrGhIT2VSiyCQZARknUKSAZXiuiDQFoT35tUwn1sB02l973wa/Pd+tD63C8VrTu1SUO+32hsHEPiwFto2N5QiM9RpLpivmQLFTquv0kgKLd3w/XILlBE22Ob3fXaBHtSh1/ugllgBc9+LAbUNzdD+cwC+j2qhllphPWMU1IvGplFCqSrXEZCZQq638BDLx51e+yIKZ61KjWNS03T4frQKLT9aYygE06HFUMYVIkgzDq4700nf2YqWEz+Ato+WdCdArPy01gBsXxoHpdCEljs3QF/blEBOSSIIJIaAzBQSw0lSJREBjSKalK1uYF87MNoOfYoTqhI7StZ8GpR1TdC9GtRZRUCRJT4Hb1bD88ZBOK6dDPWbE7uVE85kdLo0i0CxFco0Z+cMwkOrgmu9ACkSbTcpLuqkUemAOp7uqfPFxhbAQmOnQ4uMslkJqXs90GkmgFof9O1U5ugCqCRDb6Q3UFpSVKB86uRQWsYBuzpWiO8PKQVtlB2qNTRW0/dQPTuo/BlUN9dHZL5uWqQa9awKtL+zCMEldTDP7mfM8PIGaGuaoB30QvdrMM1wQT2mDKD6hfIbAVEK+d3+aZdedwfgv2EV2j8KbZHNDNiPo83WHpoH0MjXIOorPectRqCKlAaRWmaB6zeHA5NiO1421fhf3w/VaYL58olAF8ViZKZ//I9vQdvTO8O3MI+3o/CJ+VAmOqF92oCWq1fAdlQJvEs7/QCFl4xG++s8Kg+FXtlPKYPtUcpD5rCmMxfDdqgL3jXUyXeQ42vjYL5pRvg25ptH9zyTCZN1lhMFTy1A8Ani66V9xuOWKz8zvov+ciRwSDH8D29G2292hbOg4OxyWH8+J3LPFxrJzmR05sZV3/9opHy8N66GabgNJlICpnkFQKMP2v52eO/fANN0Mrt9d0rfBUmKnEVAzEc527SZKZj2x11oX1wP5//OgmvpiXDeMxPtH9Yj+IednQzTpKHgR9NQ/MlJKH7uMNIQQQT+Fuo8OxOFroI7WmGZ5aLRfOxMI5xOX1ZvKITCy8bC9dEJKHp+AXX05Oe4Z0M4ifFtOaIExW8fh6J3jjPu/aua4CDFUbT8ZBR8eQyNyMkE1uSP5FFpRO362+dQ9MHxKLiwAq1/qIp5H07IM4TWO9ah4IIKQ17Xos8jsKsN2nsHYblhhiE/py168UiDP31mEfRPiGdSCM47ZqB45SlwPXsYPK9Xh2YNlFZr9BsmM/c9G+G6bXpoJhWusJdvvSUAzzc/hY2Ul/WX82C6ZCyU08qhXDIOpu9Nge2X88Fy+e6NxaaXIuVVDiIgSiEHGzVTRTJG9uQMNo2ywnT+GKgOM8znjzXuffQ8mtRTyo2Zg3LkcNiOHg7fuwejX0eug9TRoaBnZ3JwKUUCkb4wXV4JdZgF6uGlsJ80At5ljYayMQqi98rxIwzTiTrSDuvkApgmkwmJ0io2FZbDOhzGUUrBdHiJYQZS2Nl72QSjGKOuCGcdF+vJMUyzDTbPgJzEbC6ykPnK/0FNSL7C0GRdJ/OYwZ+qIMA8EylswlrZAKXDAc1mIuP53jbDZFb0h8Ohfnm88ayvf9h81n7lJ3C8fhzUOT2bmtQLqT0OKYL3ptV9FSnvcxQBMR/laMNmqliB6nYa2ZOPIIosNDr2b6QOMw7p1GGrZOP3v02dKNv/uygAyyRHyBcQJy8rIbaZG1QRspUb5XXY9DnqJxHiPL0RO7Z5y299M5mTTo2NsArX4XupCoqz0y9iouionkivCfHse3xrJIltLvkVwvZ+UqZMCpmAEiX/bWuNGUIi6Vlhs4ILvr4PprNHJ5JF0uQQAqIUcqgxM1EUnZQAj9RRHuqUzdSB+lY3wUJOVnYuB+nbuKeReTzijj1A6VUHzQa6KATurM3zhqH12Z2hdQFdQkD5vYmcwEwKmWzYgczlBTuidQxn8fborcCNpP3+J8gzACKlQ8boAtSR1HETH7bvT4Ux+4l+2cO1WhHi2frovIiDOSYpYVj83ueBYdaYxz3dGGGs5LjnmU+iZPqfCfA/sEmUQqKA5VA6MR/lUGNmjChkZmFbPkfuBJ/fYbDFzlDupC0UV6/V+qFRLL/RWT1G33V+43mEf+q4/Q9tgk4LwPzPbTccwAUXxh+xWr5OZqFCFS1XfWbUxQvH2Cav/Xk3dJolmE4YaYzifQ9thkbKJfjqHngX1cB++shIlE+k3n5c+MjHEfwnbQxH9fl+udno+NXjqS4mpxlBMtfwmgmdnMZqqQXeZ7ZDf59mOwfaodEonGUzqGP0r791AKBoIPZbmI+lKCCiwIMhDDgKKbiIzGcdYb06+VHayVmsb4o/uzIyR/2jrWyE9ZQO3qKeR19q/yBZCJswmYhvjrpi/4VQfiEgM4X8au/0SEuRLM3fWG7UpQ63GOGiCi/OIjJfMAaFFPbZ+uwugD9EhV8lRyfZspl0k2L4GIKkUNqe3208s59IUTJXTzGuu/6jk5/A8dej4b9/I9wPdZpbLBMLYCdFpJAtn53Z7ts3hNZLUAG2o0tguTkUKaR0DIu6hsR2rafrvUJ8tpGzmv0FHP3k+uUcKDQrIH0GG8novms9vD9Zg4K/fA6Oh+ai7ZbVaL5mpVEMY1J4zWSYeGZD6yrsJ5fB/cg2ercNrheONGz+7GR2373RcDBzJktlAQruOcRYgwFSOOwTsVZ5oHDn3ReRs1vtmDFxUo3CUbnecOhr4NfbAW8Q5u9NjSnJWPhXSzM9wlgofxCQ4zjzp60HJClvkfzDJ27A705a27/8ZP9n56bCJhvqQLsRhXbq1fS+nEwl4VDUromaO0apPa1R6JKeF6spB7kTIwXUxdSEgB5aINbh0O2SNeFbDqltXrgIzh9PCzl562j9QZkVKjmIY8hP9dGQK6xseE2CWk1rAigdK49uxHiRUzumHCqDzW+Kiwoqju2YmQ+FZiSJUJBCchXCQ/3mpEjy1tPeh+P3RyFAM4R4CoEThtN0XbvwxcVT8fClP4PL1bNfJFKRXGQdAon9qrJOLGF4yBHgTqjDoRuXF1IEvE6gV0pQGYTLMJRPhz0+/CzyTRE8vCAtmWTURx18F3UQqoJCZKNts4ZyIFNR3LScg/HqyhyVoYwN+Re6vkpUIRj5aLYUXFwXU77jzePR/o1lsJw5ikJTO5VFuB5D6bBDO+zcDr+Q75xHQJRCzjexCJhMBBQa6XPIqrFXUTILTmFZCoX3Bl+oQuxcgxYNPn9Ej7UGP6yB5cTe/RA9ZpYXWY1At8FJVksjzAsCqUaAZjgFfzsWCm0xkS3EsxTr6eUIkNM+UeLFgurllYkml3Q5hIAohRxqTBFFEOgJAV7kptCeSoFHKFKqD2r/Nq16vnk6TP003/VRrLzOEgREKWRJQwmbgsBgETB9tZLiXDW0X/4J+RhiV5Dr5KAPvrbHeGelyKw+/T2DZUbyZywC4lPI2KYRxgSB5CNgvnEGVApJDbxcBf+ztIYkqMG/tQ3mKYXG+gjbrxZ07iCb/OqlxCxAQJRCFjSSsCgIJBMBdUEJrPThMFmNttSwUpQR70MlJAgwAvJLkN+BIJCnCLADmjcAFBIEohEQn0I0GnItCAgCgkCeIyBKIc9/ACK+ICAICALRCIhSiEZDrgUBQUAQyHMERCnk+Q9AxBcEBAFBIBoBUQrRaMh1NwQUckaanYnt298tszzISQRMvG8V/S6EchMBUQq52a5Jk4r/+IttRSii0yuFBAE7HQrn8BTA6exjM0OBKmsREKWQtU2XPsaPmbIQriY+KUAo3xFw0VEMC6Yclu8w5LT8ohRyunmTI9zJR56Ec2uPwvADohiSg2h2luJyAydvnI7LTvxSdgogXCeEgByykxBMkkin1a93v3Af3ij+BDUFHrjpwC+xKuf+70KjRnbRKaEujwWnV8/HPV/7KcxmWfOayy0vSiGXWzcFsi1ftRzLdn+Gne4q+NrIwJxH1LC+FsNmDAefqZAvZCmwYqxjNI4YNx8LD1uYL2LntZyiFPK6+UX4RBHgmdIVV1yBp556Cna7bA2RKG6SLvsQEJ9C9rWZcDwECHAU1uTJk4egZqlSEEgvAqIU0ou31JalCPBMYdu2bVnKvbAtCCSOgCiFxLGSlHmMAM8UKisr8xgBET1fEBClkC8tLXIOCgGeKezcuXNQZUhmQSAbEBClkA2tJDxmBAIVFRUZwYcwIQikEgFRCqlEV8rOKQT279+fU/KIMIJAPAREKcRDRZ4JAoKAIJCnCIhSyNOGF7H7hwA7midNmtS/TJJaEMhCBEQpZGGjCcvpR4Adzdu3b09/xVKjIJBmBEQppBlwqU4QEAQEgUxGQJRCJreO8JYxCMg6hYxpCmEkxQiIUkgxwFJ8biAg6xRyox1Fir4REKXQN0aSQhAQBASBvEFAlELeNLUIOlgExo8fP9giJL8gkPEIiFLI+CYSBjMFgd27d2cKK8KHIJAyBEQppAxaKVgQEAQEgexDQJRC9rWZcDwECMh5CkMAulQ5JAjIYatDArtUmi0IaJoGj8cDjj7aunUr2traEAwGjdPXTCZTtoghfAoCCSMgx3EmDJUkzEcE/H4/vvWtbxnKICw/K4Nf//rXcDqd4UfyLQjkDAJiPsqZphRBUoGAxWLBWWedFVP0scceKwohBhG5ySUERCnkUmuKLClB4Oyzz0ZhYaFRttVqxcUXX5ySeqRQQSATEBClkAmtIDxkNAIOhwPnn3++weMJJ5yA8vLyjOZXmBMEBoOAOJoHg14a8lZXV6Ompgbt7e1pqE2q6AkBVgTh/Y8+/fTTnpLJ8zQgYLfbUVZWhlGjRqWhtvyrQhzNGdrmPp8Pj/71/7C8fTU2Fe6HZs1QRvOILZMXCNrySOBMFTUIVDaX4kjLHFx/wbUR016mspttfIlSyMAW44iXG/7wE/xt6io0lmYgg8KSIJABCDhagXPWTMcjl/5cFEMS20N8CkkEM1lFPfm3X4lCSBaYUk7OItDqAP556Cb84uWHclbGoRBMlMJQoN5Lnew/WNLymcwQesFIXgkCYQRYMSwzr8OuXbvCj+R7kAiIUhgkgMnOXltbiypXXbKLlfIEgZxFYKezDgfqDuSsfOkWTJRCuhHvoz6v14s21ddHKnktCAgCYQQ0q4K6lvrwrXwPEgFRCoMEULILAoKAIJBLCIhSyKXWFFkEAUFAEBgkAqIUBglgrmXXg3quiTRk8giWQwa9VDwIBGRF8yDAy5SsgUc3Q6tuh/X+ORGWtA3N0Nc0QT26DMrYgtDztiC8N6+G+eSRMJ0/JpI2fKF/Uo/mK5bD9av5UI8tA3dqer0PagmtnDMr4WT9+ub8SgFtMc2fAVDgdzsR/LQhktM8uwjKmRVQx4f2Ioq8yLAL3R2A++T3UfC1CTBfMyU13AV0BP+5D8GldfCvbIJphA3mI0tgvmISUDgwvFPDqJSaTQjITCGbWqsnXq0qPP+ohra7LZIi8MJuuO/eCO2N/ZFn2upGtC+qheKKPxbQR9lRcOoIoMJu5NF3tqLlxA+g7fNEyujPhUKTDveZHyL4xsAiQzi/trEZPlJWpskOqJWF8P1rP1rOWozgX6r6w0r601pU2E4cAXWGK2V1+3+xEe7b1kMn5WD/0jiYqK7WX+1E60X/hdboT1m9UnBuIxC/d8htmXNOOvWYMuDJHdCXUwRGxwjatyQU1hpY1gDTlSGRtU9DERrqEaVGp6H4NCgjbdD30CEyNhVqRQGs10+DTiNOjQ6VwS5aMsq0P6QUNFIaKikgTdOhbHEDdV4o80t6nAXodT5orRpAswWwwhpmAYroQ2Qomm1URrEVyjQnFHvPI1sT8Wi+bpqRz3r9dOjnfoR2mkE4qCPkzq+bHB38K1up/H20Z9RoO/QpTqhK7GzH4IEUnjLeYeBgVED/GHjsoLwziqBSWdGkcZm1tN8Fv2N5Oqjrc4XwNP9gKlRH6E8szKc+gmZd2wlXqledM4zk7yxD91J7rG+Cxt+HFAOeIHTCO7qeSH3/3o+2F/bAefsMmAgHJkbQdc5otFz2CbRfb4N64wyjHVVuX5rtKc4QL3pLAEojtcm4ztlWPJn5N5BQ3gYf9E0tAGGlTh7YGRPadsL13YMIrG2GQrMctZRwmumC6ezRhmzyT/oQEKWQPqxTVpNKHYjqUBHkEfUFY6GTKSl4wIeCs8vheb0aNhpJsvknsLgOtqOoE6eOWSOTU/s/98NCnWX7R/Uo/Oo4KKeVo/mrn8L12wUI0oi87aV9Bs8tV35mfBf95UholQ74rlsJ75JOk47jJ9NgvmxCjHw65W++aa3xzP3wVoA+zpunwvTVSvgf34K2p3dG0pvH21H4xHwoExPrUMxTnVR/SMFpv93RXQ4y1/hvWGXIFa7EflwpbA/NC5lVyIzmu20NPG/WhF6TrnA9eCjU00fB//BmtP2mcyFUwTnlsP5sDtgc5Pnyx/DvpM6csNbaNBT9/nBgqivuc33uMLSc9hGc358E03cmg/n0/HUfLGTK865qDrMF1+8Oh7qA2qTJD88Vy+DfFFLEXAdTwaXjoHYoxEgmuggurYc63ALTRWOjH5OiKYb95DJ4XtkLFykFpcaHpjMXw/m/syImw+AfaDZBg4jitacaebvJTL8b68/nJJQ3+OYBuK9fE+HBOsuJgqcWAMOpU0+QDPPn3naYZrlgOY+UAClbhRSN770atP18Ewrvnw3TMTSDFUoLAqIU0gJziiuhDt9+ykjqBOtgptGdvqrRqND89UqAlIK2pQXqGOqM1rQYHXOYG1Yc1oU2w4eASbQ0lJRJmCw3zIDz0GK4b9+AohePhD62EHqRGdrT2+H9uAGsIHi0HHx6GzzP7IDzS+OhmDpH4vop5Sj6qwvNFyyB69bpAPkB2M6tL6s3FELhZWNh+u4UmnG0wH3Danjv2QD7b44IVx/3m30c2opGeN6qgeProdExJ+wqh/bHXWhfXG90hMqp5dC54yI5zNQZcgcd+NMuQyE4byAldQ7xxUTmHpBtnhWC8w4afV84FtqyOrR8ewUs33HTLKwR/l0eFL1xLBTCkmcLGvtJ/n0g/vNQqTH/anV+WL8/GdZH5xmzm+bTPzJMa6wUgh/WGArB+fhcKMdTB7ixBS2XLI3JH33jJ3+RdQYp0Ti+HhO1i/ZOraFoovPEu2Y/UozMNJts+eZnsFxFI3dH5ywmXl6e/bTdvg4FF1TAfMsMgJRt6zkfQXvvINQuyipefn7mv2sdcHgJrHEUn/WkcpipDlbgGGmHiRSwUOoREJ9C6jFOSw2m40aAOx11Ryv0lY2hGQHZmHnEqa8mkwQ9YzKxqSmKrP8723Aqq6M7nNHhd9SBK4WhMYNOMws2YagqzTY+qoVlmgM6mzZWNEAttxv16pvJfBBFbGYCKRGQntCp8zTy0zN2ivIz0+WVoWeHl8J+0gh4lxF/VGY88u/woGn2W2ie+zZaLv8U9mNKYLo0amZC5YXlMJEJzP9hLUyjrMbImM035vNJAdG9j56znyLwQQ3UMhqNfp3KKCPzEH/IjOOnDpJ5U8gEp61sgGImGSh9kExxCs2o+Nr/2JaQqYTycNk9PY8nBz9TL6aRP5lZWLFYJxdAZ1MUUZBMJ3xvOnGkgbM6q8h4Tvt1h767/BusJfOPNb7JjU1XBvWAZ3RRAW4Pok6ZQ/WxzH2RYeoi8yD7MkCBDWxutJAp0E/4JkLe29ZCOWo4LL2YiPh3Y/+/wxCgwYi2hBSdUMoRkJlCyiFOUwULhxsVcaSOj0wLNjIFcSduO3o4AjT6U8kfwB0jJlHnNggK0GyCbdK+R7ZESrHOpYggV++jSk5sOI4PhjrBiDOb+qCwHdqIVOJReBfiDtx53+zQ0ymuGPt/l6TGLfNoCXeqHQksM4vgJ6c1U2A/vT+EfAJRHS7zptcQb/Tte5zMXR1kI9kYO2XeMLgeOhRtD2wKmeSOHw773bN7fI6SvvHQWel0kH9DC8wTabaWIFloZqftbo2bWtvTEXDAyo79Ob2QITO9jydzL9mMV1pH2b6Xqshf0SmvaRopiT5Ie6cail+D+YzEzkSw3jgd7d/6FAV/P7aPkuX1YBEQpTBYBDMkP4+obPOp42NzBtmlC24hOzWRekQJPE/vgHmYGTYypQyWzDSj0Mjea//TUf0uSicFYOqYkSi7qOMi/wR3xsG1TUZZ7OCONy42UbSUQqG1iZKZHKg+mh1Z2FFKHX+Qvo17imBiYhn8ZA6yd/ha+Bnzxo52ZoDNO10dzJyGfQ6FhKFCM47ma1bC8kqVYY6K91z51iTOkjBZyKnKPg6bnwCxxEMhtijLUaVw/9922EhO9iNEiHwT7a8fgP3zNEiINi1RUEE8MmSmF/Fk1sMKvKe8ZNJhsn2fHOpkLuwP+V6sgvWbExPOotCMVJ1AipBneZ8n85pQyhDoHKqkrAopOF0IWMj0YJhhqEIjeoW+TeTwZLOSb5unm+moT75ohMykv0UhpWTDZmeolXwXbM4J/mobdIrQ4agbdipz5Ew34sga7vSpE9XXNRlRPaYTRoZG4w/R2grq0IKv7oF3UQ3sp5PZhE1OgyTu3C00+tRq/dB+uQW8XkMjkw9jwM/5vfmMcmjuIPz3UTgnmcC05fSh6Cgzm9aI38CDm4znHJETXHQQqGqDtp7WfbB5iSKqEMaFfRw9PO+vGJbzQutGPF/5GIGnyE9zyZJQEaTQ4pH6PxMMR3MrjZ41ikTittD/W4s2clZzxJflqslGNp3NfmRC9L9VHWqvf+yD7x2SqYPMtB6FKZ7MfeXVebZFzm7vM9uhv08mowPt0MgcxZj2RoZvqInWv5DpqEcis1r7V2N9KhYK8dXXdTrpe8wrLwaFgMwUBgVfZmU2QlMpyodnDOHFS8r0Dts0sWpEuXSwrEc5hbtJETarkKOZI1ncj2yjJNvgeuFIKORQLqT1CzxKBX+IrPOKUMCdS9iWbTwlxURhpo5rJ8PzLEXevHEQzh9Pg+krE+C8Z6bh+OU1E0y2o0tguZkclT1RL7zGk8N8wRiDx9ZndwH8IeLoKnYeM7Fd37HXg9bfVQEUYaU6ic97DwFOLjeczLy+g6O2mCyVBSi45xDwmo3WR7cayoWf248thZk65iCZQeI9D6tInUx4TPH4NBzzHVizc9n1wGz4X9tr+G2sZ1XAt55MdOwAj0McXup68Si037EOLTeujaSwTHfA9dxhkdkDK9rCb1Qa7eU9dwnM4+ywzC2ORDmB2pgd6/FkVmnG1Vte9qk4Hp6LNloQyTMnJlYShddMholDlXsiUqzqiNCAw0jCyoT8EWElwdFzbf+zFI63jo8pQRlOodLb4pvMYhLKzaAQkJPXBgVf8jOvXLkS39h+C3ZMD3crya+j3yWSw1LjdQwdHZyRn5+RDZ7XOfS2xoDTamR+MOz30WYRMt0Y6wQ6nNj95imRDBQNo1fTOoTygoiSjMlGPLAfQy+zxspGJhzumIxFflHrCDgv88z+k64LAHt6HlNfP254tM3hwaxAOcy4VyI52YHvuXcDdOLddupImMnEotDMJxIRRrM8tAVgrDUJK/3oQnuRmWeIveU11jNUe8EKkH8PfRLV1bzwHRQtPyWSVOPoq7/sgfX2mXEVAifUyXcRoPUxlltnRvLxRcVu4KHCH+Ks48+MeS43A0NAZgoDwy2/cnH0UFeJ+VmCW03ENQuRvTvR/F2rTvieI6h6W/tAPBhKrWuBpLwiW4N0edctSqvjfU/Pu2Tv8ZZNaRqZqtTp5KQln037K3sMsw9HlfVJJCdHLTnJHMPbgvhe3w/Pi3tRvPiEzsVxrNzo060dw4X3IrOxwK6XvIbCZ2d8uKy+vqkuy1SKYKNwZKUjzFQlOc00+/HdsbbbDCFcXGB9C0yHDQvfyneKEBClkCJgpVhBoD8IKLwGhOzo3v8cQKCq3QgpLribTFocQZQokXIwXz3Z+BhOYjLvZCqxDyVAviZL1NoDNjmZnj68R5aDtOrZfMv0Ht/Li+QgkLm/muTIJ6UIAlmBgEKRWNZ7ZiPxdcC9i5WQGaf3IlL61nzpeHi/+xk0WuSm8iymDwo8t90IEOjLVNlHMfI6AQR6nE0mkFeSCAKCgCAwYARsD86F79oViIS+9lCS/7HNUMj31HUrlR6Sy+NBIiBKYZAASnZBQBAYIAJk7rI/uQC+e9Yj+Mw2BDmUtZmc2ky8jQiFz/J+U7yq2/TFzm1NQgnk31QhIOajVCEr5QoCgkDfCJBisD0+H9qrVfA/R6HLfC7E+AKoNDPgBWu2O2dBpdXoQulDQJRC+rCWmgQBQaAHBNSLxsHGH3rPW7PHhD/3kEcepwYBMR+lBlcpVRAQBAaIgCiEAQKXpGyiFJIEpBQjCAgCgkAuICBKIRdaUWQQBAQBQSBJCIhSSBKQUowgIAgIArmAgCiFXGhFkUEQEAQEgSQhIEohSUAmqxizmQLCpFWSBaeUkycI2Oz92A4kTzAZqJjS/QwUuRTlKy0txYTm0B73KapCihUEcgqBUY0OTBg+PqdkGkphRCkMJfpx6h41ahQO0SdBjX9ccZwc8kgQyG8E5nqnYezYPrYXz2+I+iW9KIV+wZX6xKqq4tozv4czl8my/tSjLTVkOwInf1KOa074Juz2qEN7sl2oIeZfDtkZ4gboqfra2lr84uWH8OnoLahyNsFvTXi3+p6KlOeCQE4gYA4Ao1sKcUTtDHzvtO9g4tiJOSFXpgghSiFTWiIOH4FAAGvWrMGWg9tQ46YzcIWGFIG1H63GzIWHwGQ2DSkf+V55qbMU08qmYPr06XA6nfkOR9LlF6WQdEilwFxEQNd1XHHFFXjqqafEVJGLDSwyRRAQn0IECrkQBHpGQKHtmysrK3tOIG8EgRxBQJRCjjSkiJFaBHimsHPnztRWIqULAhmAgCiFDGgEYSE7EKioqKDzXsThnx2tJVwOFAFRCgNFTvLlHQL79+8HzxiEBIFcRkCUQi63rsiWNATEp5A0KKWgDEdAlEKGN5CwlxkIiE8hM9pBuEg9AqIUUo+x1CAICAKCQNYgIEoha5pKGB1KBNh8NGXKlKFkQeoWBNKCgCiFtMAslWQ7Amw+2rp1a7aLIfwLAn0iIEqhT4gkgSAgCAgC+YOAKIX8aWuRdBAIsPlo8uTJgyhBsgoC2YGAKIXsaCfhcogRYPPRtm3bhpgLqV4QSD0CohRSj7HUIAgIAoJA1iAgSiFrmkoYHUoE2Hw0caLs2z+UbSB1pwcBUQrpwVlqyXIE2Hy0Y8eOLJdC2BcE+kZAlELfGEkKQUAQEATyBgFRCnnT1CLoYBCQxWuDQU/yZhMC5mxiVngVBNKNAB+JumnTJqPajRs3YsOGDbBarUZ4qhwWn+7WkPrSgYAcx5kOlKWOrEUgGAzi6quvRmNjY0QGh8OBp59+2lAOkYdyIQjkCAJiPsqRhhQxUoOAyWTCeeedF1P4KaecIgohBhG5ySUERCnkUmuKLClBgJXAsGHDjLJtNhvOOuuslNQjhQoCmYCAKIVMaAXhIaMRYEUQni0cf/zxKCkpyWh+hTlBYDAIiKN5MOhJ3qQisHPnTtTW1sLj8SS13GQUVlhYCFVVUV5ejg8//DAZRSa1DHZ6Dx8+HJWVlQafSS1cCssrBMTRnFfNnZnCtrS04NFXH8ca+1asc+yBlqFDFbMfCFgyE0OVjo6e2FyGw9qm4wdfuAZlZWWZyahwlfEIiFLI+CbKbQabW5px68t34eW5a9Buz21Z0yGdOQh8YfkU/OLcu0UxpAPwHKxDfAo52KjZIhJvHfHk35/GK3NEISSrzQIm4K+Hb8WDrz0KTdOSVayUk0cIiFLIo8bONFH37d+HZdpaeAoyjbPs5kenv+oVzs3Yvn17dgsi3A8JAqIUhgR2qZQRqKmrwVbHAQEjBQjsdjVgT+3eFJQsReY6AqIUcr2FM1g+r9cLjT2kQklHgJ31DW2dq7CTXoEUmLMIiFLI2aYVwQQBQUAQ6D8CohT6j5nkEAQEAUEgZxEQpZCzTSuCCQKCgCDQfwQydJlQ/wWRHPmDgF7vg/+JrQisbIQS0GCaOwzm00ZBPVYWbOXPr0AkTRUCMlNIFbJSbkoQ0IM6PF/7BN5/7oflyFJYzhkNeDXo65tSUp8UKgjkGwIyU8i3Fs9yeZUtbvh3euC4cSrMX6/sJo1GC+LUPR7oJVYoztDPW28JQGn0AeMKI+m1Rj+UHW6A0unjeV8jJfTOE4S2oxW01B/6VBdUa2jcpDf4oG9qAUbYoE52RsrhC62Vyl/VCL3cDnWCAzCHytIPeilPM0Dp1dH9X4yhf1qP4DsHEVjbDIX4VF0mqJMcUL80PiJbDCNyIwgkAQFRCkkAUYpIHwL6SJtRWfCzBpguGtutc1SoI246azGc98yC6fwxobR/2InWp3ageM2pxn3g2e1ofXRbhOmCL42B9fZZ0D6sResNq6iTD60ENo+3w/Gv46C9cQAtP1oTSW89xImCJxcAw60IvlwF910boTpUI5/92FLYn1oA709Ww/OP6shz5w8nw3TlpEgZfV347l0PxUcKbl4x7GdUkPKyQK/zQfuoBq2nfwj7D6fAfPG4voqR94JAvxEQpdBvyCTDUCKglFrhuKoSrb/aCd/H76Pg0nEwfXEclDEJjsSXNxgKofC8UbBcORH6SNpwiUb6aPIbCsFCI3HrDdOhziqi1XU00qcZQusd61BwQQXMt8yA0hqE+9yPoL13EKYLx6Ltwc0ouLAC1rtnQ/NpUMnfoW93w/PPajh/dghMZN4yZhJk4kqUvDeuguW8Md18JArNaEzzh8H5/anw37UWQZp9mI4WP0qiuEq6xBAQn0JiOEmqDELA/L2pcL1wJGzHDEfrs7vQfAZ10v9vT0IcBj6uA8i6Y/rOZGCS05hpKGT20cgnobVpsFwyFuoCOi+hgDYRok4Y65uNGYBphgvYQKag3a2wTHPC/2GNUZ9ldjG879ci+Feq308d/yhSMhWkoGhNnv9Pu6H/txaK3QRWZomQ/9Y1sFzYXSF0zWu5czaCi2uh/WNf11dyLwgMCgFRCoOCTzIPFQLqnGJYH56Hon8eDetMJ1ru3AC9j9G4Qh21Vt0eYnlsl5lFLfkciBRSFNHEkU5Mvpeq4HtkC7z0AfX9JvI36KRc7D+fA9vhJXDfvgGtJ70P/V/7gUITil48EiA/RfO3V8Bz/mJSOqRQ+qDgmwegkzJSP5fY6N9y/XR4f70dSuKTkD44kNeCAP1sBQRBIJsRUCodsJw4MiTCvrbQN++cQaacrsSduMqjeCJ1MzmZo0hlXwXn69J5G88pn41MNvY/HRX5mK+ZEspdZoX1obkoevfzsFFIbPPNawFyVis0g+D0xa8shEJ/Zb4HN0XVFv/S//IemE8tj/8yzlPFpMAyrwTBf/7/9s4FNq7qzOP/eY/H7/cjfj/ycOwkJkkJgQDakCICaQKk3aUtqEGo6opKuy27aaXtrrTah1CyW6nAKqtuq3YDZUsFuxQWFUqzpCUmJARCHg1xHDuOnfgR2xnbY3s8M56ZPXeMjV945o7vzNx7538kP+6953zn+35nZv5z7jnnHvYWFsHDU1ES4JhClOBYLEEEBjzwv9YNQ634Ri/GEQxiRpD7l12wbcyEoSot1FuQBn19b4tB3s3ZCIqZO14xg2c6Ge/KB/6tHRMHW2B7rCI0WCxNczU1ZMGYa4H78FXY7UYxppCJ4I0JGJqyYcyxwPPjdtgtRhhWpSNwVcxOErOSDKJM4EgfIHyRbg8ZhEBIKXBdiFP3BIxVYiZSplncorLAKGYPLZWkWVOBHjeMt+R8fjYxVjHxN+dh/68tM3lMW3LgPzsM45fE1FwmElCAAEVBAYg0ET8C0i0i6QPf88PLM5Xa7yuA5VtijEAkg80Ix75KjD7XDs+u4zCX2WFZnwnfpbHQdWkAOe0f1mD86RZ4nvw4dC71iQoYxQK41GeaxIfuudCtIOmC7ZYM2A/filTRExj//lmMfJpfEg/HkzUwrsmA9z874DknpqqKZCqyhmY9GTxiLcWBltDUWem8tT4Nlm9WS/9+bjKIKbImacqsRXRLRJIGuEOD2Q+Who4DbUIQ9p+F45WtoePpXwYxAwpiAR8TCShFgDuvKUWSdmQTOHHqBJ649rfoqpNdNDTTB13jMJQ6QkKwwIKYTYTxSQTEwK/RMPVBOzuP9M0c0jhCpvgW/+lahJnromxQ3JqZXucgnQ+tf+gTs5HEOIHh02mx0/mDE+J2kZgKGyhLmVNXaC2EuI01P/90udl/Jfvj23+PtN/eNbPOYVoI7AfWLSoIUnnp1lFQrOw2/6B+tjkUXgviacu38eCf7J5zngckEI4AewrhCPG6KgmEPsjnLSKb46j4sA994M85+dlBSCjEQrRFkyg7X0ZC+YXAzD8vlZdmF0kzleYP0BmzhA8RJsm+RYyPBD52wrhp6haStEjOfnAdfIfaFvQQps0GPhqCaa2YPstEAgoRmP86VsgszZAACcglYBZTUf1Hp6a6Tpc1itlQtoPrpw8X/J08Lx7vsYvjCQvA8ETUBCgKUaNjQRJQloC00E0a3I5k+qpUs++51ql1FfNvfynrFq0lGQGKQpI1OMNVNwHrgfXwPdOKyTPOJR31HhCP1liZzkddLEmJF6MhwDGFaKixDAnEkIDt3zfC+4Pz8L3RC/PmnND024A0pVVMxw2KldQTL3bC/rUKmMTjwplIQGkCFAWlidIeCShAwPqP4llKx8TjM37bFxpoNopBcUOqWO1cngrHC7dCejQHEwnEggBFIRZUaZMEFCAgbRok/fBNqgBMmoiYAMcUIkbFjCRAAiSgfwIUBf23MSMkARIggYgJUBQiRsWMJEACJKB/AhQF/bcxIyQBEiCBiAlQFCJGxYwkQAIkoH8CFAX9t7FqI7RaxeOmF32akGpd1oxjhoABVtvSj+vWTDB0NK4EKApxxc3KZhPIy8lDxYjY+pJJcQKFww6sLKhV3C4N6p8ARUH/bazaCEtKSlAfrIVFPOWaSVkCDSNVqKqqUtYorSUFAYpCUjSzOoM0GU3Yv+s72PFBKcx+dfqoRa/ufj8f33ngSZjNXPamxfZLtM/cZCfRLcD64XQ68c8vHcDp7Eu4nuGCP/JtCEjvUwIGsfla0ZADG5w1eOpLf4Hy4nKyIYGoCFAUosLGQrEg0NLSggt9Leh3zd1TIBZ1RWPz5BvvY+O9m2Eyi011VJZyU3OwtmgNamtr2UNQWdtozR2KgtZajP4mhEBQbJf5+OOP49ChQ7Db+TC6hDQCK40LAY4pxAUzK9EDgeLiYhgW2e9ZD7ExBhKYJkBRmCbBvyQQhkBPTw+kHgMTCeiZAEVBz63L2BQlkJ6ezp6CokRpTI0EKApqbBX6pEoCLpeLPQVVtgydUpIARUFJmrSlWwLSWEJdXZ1u42NgJDBNgKIwTYJ/SWAJAtJYQmtr6xI5eIkE9EGAoqCPdmQUJEACJKAIAYqCIhhpJBkIpKSkJEOYjDHJCVAUkvwFwPAjJ+B2uyPPzJwkoFECFAWNNhzdji8BaaC5pqYmvpWyNhJIAAGKQgKgs0rtEZAGmtva2rTnOD0mAZkEKAoygTF78hIoKChI3uAZedIQ4APxkqapGWg0BMbGxrBv3745RaVbSc8++ywoEnOw8EAnBNhT0ElDMozYEEhNTcWmTZvmGK+vr6cgzCHCAz0RoCjoqTUZS0wI7N27d47d3bt3zznmAQnoiQBFQU+tyVhiQqC6unqmt1BZWYn169fHpB4aJQE1EKAoqKEV6IOqCUgzj/bs2RN6GN7OnTtV7SudI4HlEuBA83IJsryuCExOTqK7uxt9fX0Y6L0C5+B1+DxjoRjPXOjCuvpS+Cf9sDvSkZVTjPziWuTn56OkpAQ2m01XLBhMchKgKCRnuzPqeQQ6OjrQevEshvsvIc3iQlm2B5lpQFaaGQ77wj2Z3R4/hkYnMTIexHVnCobcKUjNqUbd6qbQPsnzzPOQBDRDgKKgmaaio7EgcPHiRZz+sBnFaU5UZPWjoij6/Zev90+gYzAHHc4MbNh4BxobG2PhMm2SQEwJUBRiipfG1UpA2lqz+fdvoiTtBhrLXEhdpDcQre8eXwBnrqaifTADd9z9AMrLy6M1xXIkEHcCFIW4I2eFiSZwsvktDHR+gNvq3MhMN8fMHekWU/MnZtjzNuDO7XtiVg8Nk4CSBCgKStKkLdUTePN/f4li8zk0VsVODOZDuHTNh08Ga7B77z4YjZzwN58Pj9VFgKKgrvagNzEk8Iuf/Qg71vYjL3PhwHEMqw2Zdrn9ePk9Ox59Yj+sVmusq6N9EoiaAEUhanQsqCUCLx3+IR5ociLFmthv6i+/Z8Wer/01hUFLL54k8zWx75Akg81wE0PgFz9/RhWCIEW/d6sXz//kAAKBQGJgsFYSCEOAohAGEC9rm8BvXnsB99TfSHgPYTbFL2+ZM0fQUgAACTBJREFUwKsv/Xj2Kf5PAqohQFFQTVPQEaUJfHTqPRSYW5CfgDGEpWJJSzWhvqAT7x79zVLZeI0EEkKAopAQ7Kw01gRu3ryJK+feRFONOl/iK0stGOtuRldXV6xR0D4JyCKgzneMrBCYmQQWEjj2zqvYtsa38IKKzmxrAI4deUVFHtEVEgAoCnwV6I5Ae3s7HP4O5GUnZurn283tOH46fA8gxWZCZXY/zp8/q7s2YEDaJRC/FTzaZUTPNUbgzKmj2FY5Kby2hPVc+gA/9OIHC/LdvrEMTz2+dcH5cCfEU7ax/+DbWFWVi9uaysJlx7pqI/7n5BE0NKwLm5cZSCAeBNhTiAdl1hE3AtIzjWy+TuRkhhcEyamunmH8+kgLCnJTsao6d+antCgjLj5L6yZWZAxB6t0wkYAaCLCnoIZWoA+KEWhtOY+awnFhLyVimwYD8P1v3o7K0uwFZbr7RpBit8CRYsG5lj6MjHpxx6YyWC2fvXWkTXguXO7H6LgXmxtXLLAR7kRN0QQ+ufgxpB3emEgg0QQ+e2Un2hPWTwIKEOi5eg63fSH6x1/PdkG6FfTQt38VOnW1exg3Bqc228lIs6Lr6HeRJv56vJPYse95NH84NYYg9TCGXROh20ezbS31f2m+HSfa2+D1ernSeSlQvBYXAhSFuGBmJfEgcOPGDdiNozAZxVd/GUn68P/evx5BumNqYDrFZsazf/fZtps3h8Zx6O934otba/DaO5fw9b/6b7zVfBkP31uPgz89jvc+6sLzBx/En963Fpc7nbj70Z/LqH0qa5Z9LLTjm7QHNBMJJJIAxxQSSZ91K0pA2kKzPM8dlU1JRqTbSNKPUfo1KzWsKsSee9bAIURj+5YqQIhI/81xsWezmFJ6qgPVZVn46q5GmMxGrBQDzEX5Yss2mWlF1jgG+ntllmJ2ElCeAHsKyjOlxQQRGOy/hhU2v+zaJQ14+qnti44pzDdmFh/8s9MnbYPY2FA8+1RU/2ekGtHRIw02b4mqPAuRgFIE5r7ClbJKOySQAAIuZw8yHPF9LPb61QV45/0rotcgug3LSJliL2jXUP8yLLAoCShDgD0FZTjSigoIuFzDYpZQdKLQLMYF2ruGZqKQpqiurSuYOV7sH6mHce+2Orxx9DL+8p/ewp/dvxZ/ONWJK11OWQPNkm1paurY6Mhi1fAcCcSVAEUhrrhZWSwJ+HxeWExzxwMiqU/6kv/Y/lfnZP3qrgYcPvAQTCbjgjEGiCqmN1D780c2oaV9AM+9cDL0s7mxBHWVuaGxiTkGwxwYQ4Pjfvj9flFndMIWpgpeJoGICHCTnYgwMZMWCPzq8L/goc0j4gNbvjAsNz5paurYmBc52Y6oTf36pA33ffm7sNuVmVIbtSMsmNQE2FNI6ubXV/AT4oPZ5w/ClgBRsFnNkH6Wk5wu0dOxRLYSezn1sCwJLEWAA81L0eE1TRFIsdnF7ZflDfgmKuBAIAiL1cZbR4lqANY7Q4CiMIOC/2idgN2RAdeY/Cmpaoh7zO0Xq5mjv/Wkhhjogz4IUBT00Y6MQhDIzCnG8Jj0dFTtpaHRSWTlFGrPcXqsOwIUBd01afIGlFdYAdeENl/SI0LM8osqkrfxGLlqCGjzHaQafHRETQSKiorQOWBTk0sR+9I1aEVBUfj9FyI2yIwkECUBikKU4FhMfQRycnJgsGbD6wuoz7kwHo1NpqOkpCRMLl4mgdgToCjEnjFriCOB4opGtHZF91C8OLo5p6or3W7kFq8U6yv4dpwDhgcJIcBXYUKws9JYEahbvQGdzvjsmqZUDB0DdqxcywfhKcWTdpZHgKKwPH4srTICeXl54kFC5egZ9KjMs8XdkWYdDXoKUFpaungGniWBOBOgKMQZOKuLPYH1m+/BuavLW10cey+navhjhx9Nt+6IV3WshwTCEqAohEXEDFojIH3rNqStwrW+CVW7fnPYh35PKerqVqnaTzqXXAQoCsnV3kkT7bbtD+PEZXVPTz1xyYA77vlK0rQJA9UGAYqCNtqJXsok4HA40Hjrgzh2Xp1jC6dbJ1C0cgcKCpbes0Fm2MxOAssmQFFYNkIaUCuB1WubgKzbcLXPpyoXb9z04ibWYuMX7laVX3SGBCQCFAW+DnRN4M7tu3GutxrdA+roMYyKB9+905KDHQ88pmvuDE67BLjJjnbbjp7LIPC713+KVdmXsCI/cRvYuMTzjX73xww8/Oj3ZHjOrCQQXwIUhfjyZm0JJPD6y/+B+rw2VBXHfwC6e8CLd1vz8Mg3nkogAVZNAuEJUBTCM2IOHRE49n+vIuh8H7c3xE8YTrW4MWRqwhfvf0RHJBmKXglQFPTasozrcwlcPP8hzhx/BVtW+VFWGLvbSX2DXhy7EEDdhp3YsOmuz/WHF0hATQQoCmpqDfoSNwLj4+N49+0XEXRdxLpqM4pyles5DIhFaacvueG11uLOe7+OzMzMuMXFikhguQQoCsslyPKaJnD9WidOH38dcF9FWZ4ftWUOpFjlT8rziMd1t193o6MP8JpLccvW+1FRWadpNnQ+OQlQFJKz3Rn1PAIDAwNou3gKvZ0X4BkfREW+BxkOAzJTTUhzmGExG2E2BDEZNMA36cfYeABDYjbRqDsoNvaxImjORFH5atSt2YLCQm6rOQ8vDzVEgKKgocaiq/EhMDQ0hN7eXgz0tsHZ3wmvexTjHi9SbFa4xV+LSQhFWgYy88qQW1QTEoHc3Nz4OMdaSCDGBCgKMQZM8yRAAiSgJQLyb55qKTr6SgIkQAIkIIsARUEWLmYmARIgAX0ToCjou30ZHQmQAAnIIkBRkIWLmUmABEhA3wQoCvpuX0ZHAiRAArIIUBRk4WJmEiABEtA3AYqCvtuX0ZEACZCALAIUBVm4mJkESIAE9E2AoqDv9mV0JEACJCCLAEVBFi5mJgESIAF9E6Ao6Lt9GR0JkAAJyCJAUZCFi5lJgARIQN8EKAr6bl9GRwIkQAKyCFAUZOFiZhIgARLQNwGKgr7bl9GRAAmQgCwCFAVZuJiZBEiABPRNgKKg7/ZldCRAAiQgiwBFQRYuZiYBEiABfROgKOi7fRkdCZAACcgiQFGQhYuZSYAESEDfBCgK+m5fRkcCJEACsghQFGThYmYSIAES0DeB/wcL3AIcZLIH7wAAAABJRU5ErkJggg==;imageBorder=default;" vertex="1" parent="1">
          <mxGeometry x="750" y="110" width="288.34" height="550" as="geometry" />
        </mxCell>
        <mxCell id="RajWmrVxO1QdRS3QiGWJ-29" value="&amp;nbsp;/src/touch_file/" style="sketch=0;points=[[0,0,0],[0.25,0,0],[0.5,0,0],[0.75,0,0],[1,0,0],[0,1,0],[0.25,1,0],[0.5,1,0],[0.75,1,0],[1,1,0],[0,0.25,0],[0,0.5,0],[0,0.75,0],[1,0.25,0],[1,0.5,0],[1,0.75,0]];outlineConnect=0;fontColor=#232F3E;fillColor=#ED7100;strokeColor=#ffffff;dashed=0;verticalLabelPosition=middle;verticalAlign=middle;align=left;html=1;fontSize=12;fontStyle=0;aspect=fixed;shape=mxgraph.aws4.resourceIcon;resIcon=mxgraph.aws4.lambda;labelPosition=right;" vertex="1" parent="1">
          <mxGeometry x="1170" y="166" width="40" height="40" as="geometry" />
        </mxCell>
        <mxCell id="RajWmrVxO1QdRS3QiGWJ-31" value="&amp;nbsp;" style="sketch=0;points=[[0,0,0],[0.25,0,0],[0.5,0,0],[0.75,0,0],[1,0,0],[0,1,0],[0.25,1,0],[0.5,1,0],[0.75,1,0],[1,1,0],[0,0.25,0],[0,0.5,0],[0,0.75,0],[1,0.25,0],[1,0.5,0],[1,0.75,0]];outlineConnect=0;fontColor=#232F3E;fillColor=#E7157B;strokeColor=#ffffff;dashed=0;verticalLabelPosition=middle;verticalAlign=middle;align=left;html=1;fontSize=12;fontStyle=0;aspect=fixed;shape=mxgraph.aws4.resourceIcon;resIcon=mxgraph.aws4.sqs;labelPosition=right;" vertex="1" parent="1">
          <mxGeometry x="1166" y="288" width="48" height="48" as="geometry" />
        </mxCell>
        <mxCell id="RajWmrVxO1QdRS3QiGWJ-33" value="" style="sketch=0;points=[[0,0,0],[0.25,0,0],[0.5,0,0],[0.75,0,0],[1,0,0],[0,1,0],[0.25,1,0],[0.5,1,0],[0.75,1,0],[1,1,0],[0,0.25,0],[0,0.5,0],[0,0.75,0],[1,0.25,0],[1,0.5,0],[1,0.75,0]];outlineConnect=0;fontColor=#232F3E;fillColor=#ED7100;strokeColor=#ffffff;dashed=0;verticalLabelPosition=bottom;verticalAlign=top;align=center;html=1;fontSize=12;fontStyle=0;aspect=fixed;shape=mxgraph.aws4.resourceIcon;resIcon=mxgraph.aws4.lambda;" vertex="1" parent="1">
          <mxGeometry x="1070" y="380" width="40" height="40" as="geometry" />
        </mxCell>
        <mxCell id="RajWmrVxO1QdRS3QiGWJ-34" value="" style="sketch=0;points=[[0,0,0],[0.25,0,0],[0.5,0,0],[0.75,0,0],[1,0,0],[0,1,0],[0.25,1,0],[0.5,1,0],[0.75,1,0],[1,1,0],[0,0.25,0],[0,0.5,0],[0,0.75,0],[1,0.25,0],[1,0.5,0],[1,0.75,0]];outlineConnect=0;fontColor=#232F3E;fillColor=#ED7100;strokeColor=#ffffff;dashed=0;verticalLabelPosition=bottom;verticalAlign=top;align=center;html=1;fontSize=12;fontStyle=0;aspect=fixed;shape=mxgraph.aws4.resourceIcon;resIcon=mxgraph.aws4.lambda;" vertex="1" parent="1">
          <mxGeometry x="1120" y="380" width="40" height="40" as="geometry" />
        </mxCell>
        <mxCell id="RajWmrVxO1QdRS3QiGWJ-35" value="" style="sketch=0;points=[[0,0,0],[0.25,0,0],[0.5,0,0],[0.75,0,0],[1,0,0],[0,1,0],[0.25,1,0],[0.5,1,0],[0.75,1,0],[1,1,0],[0,0.25,0],[0,0.5,0],[0,0.75,0],[1,0.25,0],[1,0.5,0],[1,0.75,0]];outlineConnect=0;fontColor=#232F3E;fillColor=#ED7100;strokeColor=#ffffff;dashed=0;verticalLabelPosition=bottom;verticalAlign=top;align=center;html=1;fontSize=12;fontStyle=0;aspect=fixed;shape=mxgraph.aws4.resourceIcon;resIcon=mxgraph.aws4.lambda;" vertex="1" parent="1">
          <mxGeometry x="1220" y="380" width="40" height="40" as="geometry" />
        </mxCell>
        <mxCell id="RajWmrVxO1QdRS3QiGWJ-37" value="&lt;b&gt;&lt;font style=&quot;font-size: 20px;&quot;&gt;...&lt;/font&gt;&lt;/b&gt;" style="text;html=1;align=center;verticalAlign=middle;resizable=0;points=[];autosize=1;strokeColor=none;fillColor=none;" vertex="1" parent="1">
          <mxGeometry x="1170" y="380" width="40" height="40" as="geometry" />
        </mxCell>
        <mxCell id="RajWmrVxO1QdRS3QiGWJ-38" value="" style="sketch=0;points=[[0,0,0],[0.25,0,0],[0.5,0,0],[0.75,0,0],[1,0,0],[0,1,0],[0.25,1,0],[0.5,1,0],[0.75,1,0],[1,1,0],[0,0.25,0],[0,0.5,0],[0,0.75,0],[1,0.25,0],[1,0.5,0],[1,0.75,0]];outlineConnect=0;fontColor=#232F3E;fillColor=#E7157B;strokeColor=#ffffff;dashed=0;verticalLabelPosition=middle;verticalAlign=middle;align=left;html=1;fontSize=12;fontStyle=0;aspect=fixed;shape=mxgraph.aws4.resourceIcon;resIcon=mxgraph.aws4.sqs;labelPosition=right;" vertex="1" parent="1">
          <mxGeometry x="1166" y="526" width="48" height="48" as="geometry" />
        </mxCell>
        <mxCell id="RajWmrVxO1QdRS3QiGWJ-39" value="&amp;nbsp;/src/write_manifest/" style="sketch=0;points=[[0,0,0],[0.25,0,0],[0.5,0,0],[0.75,0,0],[1,0,0],[0,1,0],[0.25,1,0],[0.5,1,0],[0.75,1,0],[1,1,0],[0,0.25,0],[0,0.5,0],[0,0.75,0],[1,0.25,0],[1,0.5,0],[1,0.75,0]];outlineConnect=0;fontColor=#232F3E;fillColor=#ED7100;strokeColor=#ffffff;dashed=0;verticalLabelPosition=middle;verticalAlign=middle;align=left;html=1;fontSize=12;fontStyle=0;aspect=fixed;shape=mxgraph.aws4.resourceIcon;resIcon=mxgraph.aws4.lambda;labelPosition=right;" vertex="1" parent="1">
          <mxGeometry x="1170" y="220" width="40" height="40" as="geometry" />
        </mxCell>
        <mxCell id="RajWmrVxO1QdRS3QiGWJ-40" value="&amp;nbsp;/src/fetch_block/" style="sketch=0;points=[[0,0,0],[0.25,0,0],[0.5,0,0],[0.75,0,0],[1,0,0],[0,1,0],[0.25,1,0],[0.5,1,0],[0.75,1,0],[1,1,0],[0,0.25,0],[0,0.5,0],[0,0.75,0],[1,0.25,0],[1,0.5,0],[1,0.75,0]];outlineConnect=0;fontColor=#232F3E;fillColor=#ED7100;strokeColor=#ffffff;dashed=0;verticalLabelPosition=middle;verticalAlign=middle;align=left;html=1;fontSize=12;fontStyle=0;aspect=fixed;shape=mxgraph.aws4.resourceIcon;resIcon=mxgraph.aws4.lambda;labelPosition=right;" vertex="1" parent="1">
          <mxGeometry x="1270" y="381" width="40" height="40" as="geometry" />
        </mxCell>
        <mxCell id="RajWmrVxO1QdRS3QiGWJ-41" value="&amp;nbsp;/src/poll_queue/" style="sketch=0;points=[[0,0,0],[0.25,0,0],[0.5,0,0],[0.75,0,0],[1,0,0],[0,1,0],[0.25,1,0],[0.5,1,0],[0.75,1,0],[1,1,0],[0,0.25,0],[0,0.5,0],[0,0.75,0],[1,0.25,0],[1,0.5,0],[1,0.75,0]];outlineConnect=0;fontColor=#232F3E;fillColor=#ED7100;strokeColor=#ffffff;dashed=0;verticalLabelPosition=middle;verticalAlign=middle;align=left;html=1;fontSize=12;fontStyle=0;aspect=fixed;shape=mxgraph.aws4.resourceIcon;resIcon=mxgraph.aws4.lambda;labelPosition=right;" vertex="1" parent="1">
          <mxGeometry x="1170" y="436" width="40" height="40" as="geometry" />
        </mxCell>
      </root>
    </mxGraphModel>
  </diagram>
</mxfile>
